<?xml version="1.0" standalone="no"?>
<!DOCTYPE svg PUBLIC "-//W3C//DTD SVG 20010904//EN"
 "http://www.w3.org/TR/2001/REC-SVG-20010904/DTD/svg10.dtd">
<svg version="1.0" xmlns="http://www.w3.org/2000/svg"
 width="1203.000000pt" height="1202.000000pt" viewBox="0 0 1203.000000 1202.000000"
 preserveAspectRatio="xMidYMid meet">

<g transform="translate(0.000000,1202.000000) scale(0.100000,-0.100000)"
fill="#000000" stroke="none">
<path d="M5035 11881 c-6 -6 -154 -11 -352 -13 -257 -2 -345 -6 -355 -15 -7
-8 -38 -13 -73 -13 -53 0 -65 -4 -85 -25 -18 -19 -34 -25 -66 -25 -24 0 -46
-4 -49 -10 -3 -5 -23 -10 -44 -10 -27 0 -44 -7 -61 -25 -14 -15 -35 -25 -51
-25 -14 0 -32 -7 -39 -15 -7 -8 -29 -15 -50 -15 -24 0 -40 -5 -44 -15 -3 -8
-11 -15 -19 -15 -7 0 -28 -16 -47 -35 -19 -19 -43 -35 -53 -35 -11 0 -30 -11
-43 -25 -13 -14 -29 -25 -37 -25 -23 0 -71 -28 -87 -50 -9 -13 -26 -20 -46
-20 -22 0 -37 -8 -50 -25 -10 -14 -24 -25 -30 -25 -6 0 -17 -7 -24 -15 -7 -8
-23 -15 -36 -15 -13 0 -24 -4 -24 -9 0 -4 -28 -11 -62 -15 -34 -3 -64 -9 -67
-14 -9 -11 -52 -30 -86 -37 -40 -8 -85 -28 -85 -37 0 -5 -11 -8 -24 -8 -13 0
-29 -7 -36 -15 -7 -8 -20 -15 -30 -15 -10 0 -23 -7 -30 -15 -7 -8 -18 -15 -25
-15 -6 0 -20 -8 -29 -19 -9 -10 -35 -21 -58 -24 -22 -3 -44 -9 -47 -14 -12
-16 -56 -31 -106 -37 -47 -6 -56 -12 -147 -103 -73 -73 -98 -104 -98 -123 0
-17 -13 -39 -35 -60 -19 -19 -35 -40 -35 -47 0 -7 -4 -13 -9 -13 -4 0 -11 -16
-14 -36 -8 -47 -29 -94 -43 -94 -13 0 -54 -42 -54 -56 0 -5 -10 -14 -22 -19
-12 -6 -29 -23 -38 -40 -10 -17 -26 -31 -40 -33 -26 -4 -119 -93 -137 -132 -6
-14 -14 -68 -16 -120 -3 -56 -9 -96 -16 -98 -6 -2 -11 -19 -11 -38 0 -19 -4
-34 -10 -34 -6 0 -10 -36 -10 -89 0 -66 -4 -92 -15 -101 -8 -7 -15 -23 -15
-35 0 -13 -7 -25 -15 -29 -8 -3 -15 -11 -15 -19 0 -7 -10 -23 -23 -35 -13 -12
-29 -38 -37 -57 -8 -19 -17 -35 -21 -35 -4 0 -10 -13 -14 -29 -3 -16 -13 -35
-21 -42 -24 -19 -54 -89 -54 -124 0 -17 -5 -36 -11 -42 -6 -6 -14 -62 -17
-125 -4 -93 -8 -116 -23 -129 -16 -14 -19 -32 -19 -126 0 -86 -3 -113 -15
-123 -8 -7 -15 -23 -15 -36 0 -13 -4 -24 -10 -24 -5 0 -10 -22 -10 -49 0 -31
-5 -53 -15 -61 -8 -7 -15 -19 -15 -26 0 -8 -4 -14 -10 -14 -5 0 -10 -11 -10
-24 0 -13 -7 -29 -15 -36 -8 -7 -15 -19 -15 -26 0 -8 -4 -14 -10 -14 -6 0 -10
-90 -10 -249 0 -209 -2 -251 -15 -261 -11 -9 -15 -35 -15 -104 0 -51 -4 -96
-9 -101 -5 -6 -11 -99 -13 -208 -2 -116 -7 -201 -13 -205 -21 -15 -95 -163
-95 -191 0 -6 -4 -11 -10 -11 -5 0 -10 -11 -10 -24 0 -14 -4 -27 -9 -31 -5 -3
-13 -19 -16 -37 -4 -17 -15 -46 -25 -62 -9 -17 -20 -53 -24 -78 -4 -26 -11
-50 -17 -53 -5 -4 -9 -24 -9 -45 0 -21 -4 -41 -9 -45 -5 -3 -13 -34 -16 -70
-4 -36 -11 -68 -16 -71 -12 -7 -12 -481 0 -488 4 -3 11 -46 15 -96 4 -51 11
-100 16 -111 6 -10 15 -28 20 -39 6 -11 10 -29 10 -41 0 -19 17 -66 40 -110 5
-9 12 -34 16 -55 4 -22 15 -51 25 -66 11 -14 19 -34 19 -45 1 -10 12 -36 25
-58 14 -22 28 -47 32 -55 3 -8 28 -40 55 -71 26 -31 48 -61 48 -66 0 -5 23
-31 50 -58 28 -27 50 -53 50 -59 0 -5 21 -32 48 -61 88 -97 102 -113 102 -123
0 -5 7 -15 16 -22 8 -8 21 -27 28 -44 20 -47 223 -242 269 -259 9 -4 21 -17
26 -29 12 -32 51 -65 84 -73 15 -4 33 -15 40 -24 13 -17 40 -36 72 -50 11 -5
29 -18 39 -30 11 -11 25 -21 33 -21 7 0 13 -4 13 -8 0 -5 18 -17 40 -28 l40
-19 0 -262 0 -263 65 0 65 0 0 235 0 235 135 0 c74 0 135 4 135 9 0 5 10 9 23
10 63 3 127 14 127 22 0 5 18 9 40 9 22 0 40 4 40 9 0 5 10 13 21 16 27 9 109
92 109 111 0 8 5 14 10 14 6 0 10 11 10 25 0 14 4 25 10 25 5 0 12 27 16 60 4
33 11 60 15 60 5 0 9 9 9 19 0 11 4 22 9 25 15 10 23 151 16 277 -4 66 -10
118 -12 115 -3 -3 -14 4 -25 14 -22 20 -65 14 -93 -14 -18 -17 -22 -186 -5
-186 6 0 10 -11 10 -25 0 -14 -4 -25 -10 -25 -5 0 -10 -20 -10 -44 0 -25 -4
-47 -10 -51 -5 -3 -7 -12 -4 -19 3 -8 1 -17 -5 -21 -6 -3 -11 -19 -11 -36 0
-16 -4 -29 -10 -29 -5 0 -10 -11 -10 -25 0 -14 -4 -25 -9 -25 -4 0 -6 -11 -3
-25 2 -15 0 -25 -7 -25 -6 0 -11 -6 -11 -12 -1 -20 -36 -58 -54 -58 -9 0 -16
-4 -16 -9 0 -5 -34 -12 -75 -16 -41 -4 -75 -11 -75 -16 0 -5 -18 -9 -39 -9
-22 0 -43 -5 -46 -10 -8 -13 -125 -13 -125 0 0 6 -11 10 -25 10 -14 0 -25 4
-25 9 0 5 -26 13 -57 17 -32 4 -61 12 -65 18 -4 6 -11 11 -15 12 -21 2 -63 25
-63 34 0 5 -9 10 -19 10 -10 0 -21 7 -25 15 -3 8 -13 15 -21 15 -9 0 -28 14
-42 30 -13 17 -29 28 -34 24 -5 -3 -9 0 -9 5 0 6 -9 11 -21 11 -11 0 -18 4
-15 9 3 5 -14 29 -38 54 -25 25 -42 48 -39 51 4 3 -3 6 -14 6 -11 0 -32 11
-46 24 -15 14 -35 27 -46 31 -11 3 -23 15 -26 25 -3 10 -15 22 -25 25 -10 3
-22 15 -25 26 -4 10 -11 19 -16 19 -5 0 -9 7 -9 15 0 8 -4 15 -9 15 -5 0 -13
9 -16 20 -4 11 -11 18 -16 15 -5 -4 -9 3 -9 14 0 12 -5 21 -11 21 -5 0 -8 4
-5 9 3 4 -10 22 -29 40 -19 17 -35 37 -35 44 0 7 -9 19 -19 27 -11 7 -18 17
-15 22 3 4 1 8 -5 8 -14 0 -61 48 -61 63 0 7 -11 21 -25 31 -15 11 -23 25 -20
34 3 10 0 12 -10 8 -8 -3 -15 0 -15 5 0 6 -18 29 -40 51 -22 22 -40 49 -40 60
0 10 -5 16 -10 13 -6 -3 -10 1 -10 10 0 9 -5 13 -10 10 -5 -3 -10 -1 -10 5 0
16 -32 84 -43 91 -5 3 -8 9 -7 13 4 15 -12 66 -21 66 -5 0 -9 11 -9 25 0 14
-4 25 -9 25 -5 0 -12 18 -16 40 -4 22 -11 42 -16 46 -5 3 -9 16 -9 30 0 13 -4
24 -8 24 -5 0 -9 6 -10 13 -7 65 -16 106 -23 101 -5 -3 -9 15 -9 40 0 25 -4
46 -10 46 -5 0 -10 25 -10 55 0 30 -4 55 -10 55 -6 0 -10 68 -10 185 0 117 4
185 10 185 6 0 10 23 10 50 0 28 4 50 8 50 4 0 14 28 21 63 7 34 15 69 18 77
4 8 5 23 4 33 -1 9 3 17 8 17 6 0 11 14 11 31 0 17 4 28 10 24 6 -3 10 3 10
14 0 12 4 21 8 21 5 0 7 14 4 30 -3 18 0 30 7 30 6 0 11 7 11 15 0 8 4 15 9
15 5 0 11 18 15 40 3 22 11 40 16 40 6 0 10 11 10 24 0 14 4 27 9 31 5 3 12
19 16 35 4 17 11 30 16 30 5 0 9 6 9 13 0 7 11 24 25 39 14 15 25 30 25 33 0
11 83 89 108 103 13 6 33 12 43 12 11 0 19 4 19 10 0 5 18 13 40 16 22 4 40
10 40 15 0 5 11 9 25 9 14 0 25 4 25 10 0 5 11 12 25 16 14 3 25 10 25 15 0 5
11 9 24 9 13 0 26 6 28 12 3 9 60 14 211 16 183 4 207 2 213 -12 3 -9 17 -16
30 -16 13 0 24 -4 24 -10 0 -5 11 -12 25 -16 14 -3 25 -10 25 -16 0 -5 -4 -7
-9 -3 -5 3 -12 1 -15 -4 -3 -4 10 -11 29 -14 74 -12 173 -82 189 -135 4 -11
16 -24 27 -27 12 -4 19 -15 19 -30 0 -13 7 -31 16 -40 9 -9 14 -26 12 -39 -3
-16 -1 -23 7 -19 7 2 17 -8 23 -24 5 -16 17 -37 27 -46 15 -16 15 -17 -4 -17
-25 0 -28 -20 -3 -20 24 -1 52 -24 52 -44 0 -9 4 -16 9 -16 5 0 12 -11 15 -25
4 -14 10 -25 15 -25 5 0 12 -14 16 -30 4 -16 11 -30 16 -30 5 0 9 -9 9 -19 0
-11 9 -22 19 -26 11 -3 23 -15 26 -25 3 -10 15 -22 26 -25 10 -4 19 -15 19
-26 0 -11 7 -22 16 -26 8 -3 13 -12 10 -19 -3 -8 0 -11 10 -7 7 3 14 0 14 -6
0 -19 55 -12 70 9 18 25 27 25 35 0 3 -11 14 -20 23 -20 21 0 52 -34 52 -56 0
-9 11 -27 25 -40 14 -13 25 -29 25 -36 0 -9 -3 -9 -10 2 -7 10 -10 11 -10 2 0
-7 11 -17 25 -22 18 -7 25 -17 25 -35 0 -14 5 -25 10 -25 6 0 10 -9 10 -20 0
-11 5 -20 11 -20 6 0 8 -8 4 -19 -3 -11 -1 -22 5 -26 5 -3 10 -19 10 -36 0
-16 5 -29 10 -29 6 0 10 -11 10 -25 0 -14 4 -25 9 -25 5 0 12 -38 16 -85 4
-47 11 -85 16 -85 5 0 9 -61 9 -135 0 -93 3 -135 11 -135 7 0 9 -11 6 -29 -3
-15 -2 -32 3 -37 4 -5 6 -33 3 -61 -4 -42 -9 -53 -24 -53 -10 0 -21 -9 -24
-20 -3 -11 -11 -20 -16 -20 -5 0 -9 -150 -9 -375 0 -206 -4 -375 -8 -375 -7 0
-26 -486 -23 -577 0 -13 -4 -23 -9 -23 -6 0 -10 -25 -10 -55 0 -30 -4 -55 -9
-55 -5 0 -12 -22 -16 -50 -5 -36 -12 -51 -26 -55 -20 -7 -27 -25 -9 -25 6 0
10 -16 10 -35 0 -20 -5 -35 -12 -35 -8 0 -9 -34 -4 -126 4 -79 3 -131 -3 -138
-6 -7 -13 -56 -17 -109 -4 -54 -11 -100 -15 -103 -5 -3 -9 -29 -9 -58 0 -28
-6 -58 -12 -64 -10 -10 -13 -102 -13 -385 0 -365 0 -373 22 -409 12 -20 25
-64 29 -97 4 -34 11 -64 15 -67 5 -3 9 -13 9 -23 0 -10 7 -32 15 -47 8 -16 15
-38 16 -49 0 -11 9 -33 20 -50 10 -16 26 -47 36 -67 10 -21 21 -38 25 -38 3 0
9 -13 13 -29 3 -16 15 -37 26 -47 10 -9 19 -21 19 -26 0 -5 11 -19 25 -32 14
-13 25 -27 25 -33 0 -13 73 -83 87 -83 6 0 13 -4 15 -8 4 -12 95 -62 112 -62
7 0 23 -12 37 -26 13 -14 40 -32 59 -40 19 -9 42 -20 52 -24 9 -5 39 -12 67
-16 28 -4 51 -9 51 -13 0 -15 63 -30 155 -36 55 -3 104 -11 110 -16 5 -5 21
-9 36 -9 15 0 30 -4 33 -9 3 -5 33 -12 66 -16 33 -4 63 -11 66 -16 3 -5 18 -9
34 -9 16 0 31 -4 34 -9 4 -5 30 -12 58 -16 32 -5 59 -15 69 -26 9 -11 28 -19
41 -19 29 0 248 -107 248 -121 0 -5 11 -9 24 -9 14 0 28 -4 31 -10 3 -5 13
-10 22 -10 8 0 29 -6 46 -14 18 -7 48 -21 69 -30 20 -9 43 -16 51 -16 9 0 19
-4 22 -10 3 -5 17 -10 30 -10 13 0 27 -4 30 -10 3 -5 15 -10 26 -10 18 0 19
-8 19 -104 0 -58 4 -107 9 -110 4 -3 11 -35 15 -71 4 -37 11 -75 16 -86 6 -10
15 -28 20 -39 6 -11 10 -25 10 -31 0 -16 70 -158 82 -165 5 -3 13 -16 19 -27
14 -33 33 -61 47 -70 6 -4 12 -13 12 -20 0 -16 111 -127 128 -127 7 0 15 -7
18 -15 4 -8 16 -15 29 -15 12 0 28 -7 35 -15 7 -8 21 -15 31 -15 10 0 21 -4
24 -10 3 -5 19 -10 34 -10 16 0 34 -7 41 -15 7 -8 25 -15 41 -15 15 0 31 -4
34 -10 3 -5 17 -10 31 -10 13 0 24 -4 24 -9 0 -5 39 -12 88 -16 60 -5 95 -13
114 -26 14 -11 36 -19 48 -19 12 0 38 -7 58 -16 70 -31 77 -33 122 -40 25 -3
58 -15 73 -26 21 -15 51 -21 128 -25 55 -3 102 -10 105 -14 3 -5 20 -9 39 -9
19 0 36 -4 39 -9 4 -5 56 -13 116 -16 61 -4 113 -12 116 -16 7 -12 801 -12
808 -1 3 5 126 12 273 16 150 4 269 11 271 17 2 5 55 9 117 9 65 0 116 4 120
10 3 6 25 10 48 10 38 0 150 46 167 68 3 4 19 14 35 22 29 14 76 49 122 90 12
11 26 20 31 20 9 0 74 68 114 118 10 12 20 33 24 46 3 13 17 34 30 47 13 12
24 30 24 40 0 9 7 22 15 29 29 24 96 174 102 228 3 29 10 55 14 58 5 3 9 25 9
49 0 24 4 46 9 50 27 16 41 72 41 166 0 54 4 101 10 104 6 3 10 46 10 95 0 49
-4 92 -10 95 -6 4 -10 55 -10 120 0 65 -4 116 -10 120 -13 8 -13 92 0 100 5 3
10 37 10 74 0 49 4 72 15 81 8 7 15 25 15 41 0 15 5 31 10 34 6 3 10 17 10 30
0 13 5 27 10 30 6 3 10 20 10 36 0 17 6 32 15 35 8 4 15 17 15 29 0 13 5 27
10 30 6 3 10 13 10 22 0 14 20 66 41 105 5 10 9 28 9 42 0 13 7 29 15 36 10 8
15 30 15 61 0 26 4 50 9 53 5 3 12 67 16 141 4 74 11 135 16 135 5 0 9 29 9
64 0 36 4 67 9 70 5 3 12 83 16 176 4 94 11 173 16 176 5 3 9 96 9 208 l0 203
-25 23 c-31 29 -31 35 0 76 14 18 25 39 25 47 0 7 18 48 40 91 22 42 40 84 40
92 0 8 4 22 9 32 5 9 17 34 25 54 9 20 21 40 26 43 6 3 10 30 10 60 0 30 4 56
9 59 4 3 12 51 15 106 4 55 12 102 17 105 5 4 9 19 9 34 0 15 4 31 9 37 5 5
13 29 18 54 6 32 15 48 31 55 13 6 22 19 22 31 0 31 25 75 65 114 19 18 35 40
35 47 0 7 5 13 10 13 6 0 10 10 10 23 0 13 5 28 12 35 8 8 13 96 16 304 2 161
8 297 13 303 15 15 11 150 -6 181 -8 16 -15 54 -15 85 0 43 -5 60 -20 74 -17
15 -20 31 -20 96 0 74 -1 78 -30 102 -18 15 -30 35 -30 49 0 13 -9 30 -20 38
-11 8 -20 19 -20 25 0 7 -11 22 -25 35 -14 13 -25 29 -25 37 0 7 -7 13 -15 13
-11 0 -15 11 -15 39 0 22 -4 43 -10 46 -5 3 -10 30 -10 58 0 41 4 56 20 67 16
11 20 26 20 67 0 29 -4 53 -10 53 -13 0 -13 147 -1 155 6 3 13 26 17 50 3 25
10 48 15 51 5 3 9 24 9 48 0 23 6 48 13 54 8 9 13 56 15 140 l4 127 -41 79
c-42 81 -49 110 -31 121 6 4 10 62 10 140 0 112 -3 140 -19 167 -10 18 -21 55
-25 80 -4 26 -11 50 -17 53 -5 4 -9 17 -9 31 0 13 -4 24 -9 24 -4 0 -11 33
-13 73 -5 69 -26 125 -64 168 -8 8 -14 20 -14 26 0 5 -11 20 -25 33 -14 13
-25 28 -25 33 0 6 -16 29 -35 53 -19 23 -35 47 -35 52 0 5 -7 15 -15 22 -9 7
-15 29 -15 54 0 23 -4 46 -9 52 -5 5 -11 88 -13 184 -3 160 -5 178 -26 213
-12 21 -22 52 -22 70 0 18 -7 42 -15 53 -8 10 -15 39 -15 64 0 25 -7 54 -15
64 -8 11 -15 30 -15 42 0 13 -4 26 -10 29 -5 3 -10 24 -10 46 0 21 -4 39 -10
39 -5 0 -10 9 -10 21 0 22 -30 79 -41 79 -4 0 -10 13 -14 29 -3 16 -15 37 -26
47 -10 9 -19 29 -19 44 0 15 -7 33 -15 40 -8 7 -15 20 -15 30 0 10 -7 23 -15
30 -8 7 -15 18 -15 24 0 20 -49 112 -70 131 -11 10 -20 29 -20 42 0 14 -17 45
-40 72 -22 26 -40 52 -40 57 0 6 -16 25 -35 44 -19 19 -35 38 -35 43 0 30
-306 337 -337 337 -5 0 -22 14 -38 30 -16 17 -33 30 -38 30 -5 0 -27 18 -50
39 -75 70 -124 111 -134 111 -5 0 -20 11 -33 25 -13 14 -27 25 -32 25 -10 0
-39 23 -108 88 -31 28 -61 52 -67 52 -5 0 -20 11 -33 25 -13 14 -30 25 -37 25
-8 0 -16 7 -19 15 -4 8 -12 15 -19 15 -7 0 -18 7 -25 15 -7 8 -22 15 -33 15
-11 0 -35 16 -54 35 -19 19 -37 35 -41 35 -4 0 -41 34 -82 75 -41 41 -79 75
-86 75 -6 0 -21 11 -34 25 -13 14 -28 25 -33 25 -6 0 -29 16 -53 35 -23 19
-46 35 -51 35 -5 0 -20 11 -32 24 -13 14 -38 26 -62 29 -28 4 -55 19 -98 56
-32 28 -66 51 -76 51 -9 0 -30 10 -47 21 -16 12 -51 24 -76 27 -26 3 -59 13
-74 23 -14 11 -30 19 -36 19 -5 0 -15 7 -22 15 -7 8 -25 15 -41 15 -15 0 -31
4 -34 10 -3 5 -28 12 -56 16 -27 4 -52 11 -55 15 -3 5 -23 9 -44 9 -21 0 -42
4 -45 10 -3 5 -28 12 -56 16 -27 4 -52 11 -55 15 -3 5 -16 9 -29 9 -13 0 -26
4 -29 9 -3 4 -33 11 -65 15 -33 4 -63 11 -66 16 -4 6 -21 10 -40 10 -19 0 -36
4 -39 9 -3 4 -43 11 -88 15 -46 4 -87 11 -92 16 -6 6 -19 10 -31 10 -12 0 -25
4 -31 10 -5 5 -42 12 -82 16 -40 4 -75 11 -78 15 -7 12 -928 11 -939 0z m3065
-1610 c0 -5 18 -11 40 -15 22 -3 40 -11 40 -16 0 -6 9 -10 19 -10 10 0 21 -7
25 -15 3 -8 15 -15 26 -15 11 0 20 -4 20 -10 0 -5 7 -10 15 -10 8 0 15 -4 15
-10 0 -5 11 -12 25 -16 14 -3 25 -10 25 -15 0 -5 7 -9 15 -9 8 0 15 -4 15 -10
0 -5 8 -10 19 -10 10 0 21 -8 25 -17 6 -21 25 -51 44 -71 6 -7 12 -24 12 -37
0 -15 7 -26 19 -30 11 -3 23 -15 26 -26 4 -10 11 -19 16 -19 5 0 9 -7 9 -15 0
-8 5 -15 10 -15 6 0 10 -7 10 -15 0 -8 12 -26 26 -40 14 -14 28 -41 31 -60 3
-19 10 -35 14 -35 5 0 9 -7 9 -15 0 -8 5 -15 10 -15 6 0 10 -10 10 -23 0 -12
14 -49 30 -80 17 -32 30 -65 30 -73 0 -8 5 -14 10 -14 6 0 10 -28 10 -64 0
-36 5 -68 10 -71 14 -8 13 -495 -1 -495 -5 0 -9 -49 -9 -114 0 -68 -4 -116
-10 -118 -6 -2 -13 -35 -17 -73 -3 -39 -10 -73 -15 -76 -16 -10 -12 -87 6
-104 9 -9 16 -21 16 -26 0 -5 11 -9 25 -9 14 0 25 -5 25 -11 0 -7 10 -9 25 -7
14 3 25 1 25 -3 0 -5 38 -9 85 -9 50 0 85 -4 85 -10 0 -5 10 -10 23 -10 12 0
31 -7 41 -15 11 -8 30 -15 43 -15 13 0 23 -4 23 -10 0 -5 11 -10 25 -10 14 0
32 -8 41 -19 10 -11 24 -16 35 -14 11 3 19 0 19 -6 0 -6 11 -11 24 -11 14 0
31 -7 40 -15 8 -8 19 -15 25 -15 6 0 11 -4 11 -10 0 -5 16 -12 35 -16 19 -3
35 -10 35 -15 0 -5 7 -9 15 -9 8 0 15 -4 15 -10 0 -5 7 -10 15 -10 8 0 15 -4
15 -9 0 -5 9 -7 20 -4 11 3 20 0 20 -6 0 -6 11 -11 24 -11 13 0 26 -7 30 -15
3 -8 15 -15 26 -15 11 0 20 -4 20 -8 0 -4 14 -13 30 -19 23 -9 30 -18 30 -37
0 -14 4 -26 8 -26 4 0 8 -10 9 -22 1 -11 6 -24 11 -27 5 -3 12 -27 16 -53 4
-27 11 -48 17 -48 5 0 9 -54 9 -125 0 -77 -4 -125 -10 -125 -5 0 -10 -22 -10
-50 0 -27 5 -50 10 -50 6 0 10 -7 10 -15 0 -8 4 -15 10 -15 5 0 12 -16 16 -35
3 -19 10 -35 15 -35 5 0 9 -9 9 -21 0 -11 5 -17 10 -14 14 9 13 -98 -2 -113
-7 -7 -11 -34 -9 -67 2 -39 -2 -59 -13 -71 -9 -8 -16 -26 -16 -40 0 -13 -4
-24 -10 -24 -5 0 -10 -11 -10 -25 0 -14 -4 -25 -10 -25 -6 0 -10 -48 -11 -122
-1 -68 -4 -184 -8 -260 -3 -75 -3 -134 2 -131 4 2 7 -16 7 -41 0 -36 4 -46 20
-51 11 -3 20 -11 20 -16 0 -5 11 -19 25 -31 14 -12 25 -30 25 -39 0 -10 8 -23
18 -28 9 -6 11 -11 5 -11 -9 0 -13 -17 -13 -50 l0 -50 46 0 46 0 -3 -62 c-3
-65 6 -108 22 -108 5 0 9 -29 9 -64 0 -38 4 -66 11 -68 13 -4 14 -16 10 -340
-1 -146 -6 -248 -12 -248 -5 0 -9 -25 -9 -55 0 -30 -4 -55 -9 -55 -5 0 -12
-20 -15 -44 -6 -36 -10 -44 -23 -39 -11 4 -14 2 -9 -5 4 -7 3 -12 -3 -12 -5 0
-12 -9 -16 -19 -3 -11 -15 -23 -25 -26 -10 -3 -22 -16 -26 -28 -4 -12 -15 -29
-25 -38 -12 -10 -21 -37 -25 -72 -4 -32 -11 -57 -15 -57 -5 0 -9 -11 -9 -25 0
-14 -4 -25 -10 -25 -5 0 -10 -12 -10 -26 0 -14 -3 -23 -7 -21 -5 3 -6 -21 -5
-54 3 -38 0 -59 -7 -59 -7 0 -11 -23 -11 -60 0 -33 -4 -60 -10 -60 -5 0 -10
-22 -10 -49 0 -31 -6 -55 -15 -65 -8 -8 -15 -24 -15 -36 0 -12 -4 -19 -9 -16
-5 3 -12 -19 -16 -49 -3 -30 -11 -55 -16 -55 -5 0 -9 -7 -9 -15 0 -8 -4 -15
-10 -15 -5 0 -12 -16 -16 -35 -3 -19 -10 -35 -15 -35 -5 0 -9 -6 -9 -14 0 -8
-10 -18 -21 -21 -15 -5 -18 -10 -10 -15 9 -5 9 -11 -3 -23 -9 -8 -16 -25 -16
-36 0 -12 -6 -21 -15 -21 -8 0 -15 5 -15 10 0 6 -22 10 -50 10 -27 0 -50 -4
-50 -10 0 -5 -15 -10 -34 -10 -19 0 -36 -5 -38 -11 -3 -10 -87 -25 -182 -34
-22 -2 -43 -10 -48 -17 -6 -11 -10 -11 -17 0 -5 9 -30 14 -74 13 -37 0 -69 4
-72 9 -8 13 -75 13 -75 0 0 -15 -19 -12 -36 5 -9 8 -26 15 -40 15 -22 0 -24 4
-24 48 0 81 -12 182 -21 176 -5 -3 -9 4 -9 16 0 25 -81 110 -104 110 -10 0
-16 9 -16 23 0 31 -32 67 -59 67 -19 0 -21 5 -21 68 1 51 5 72 20 90 11 13 24
21 29 18 5 -4 12 -2 16 4 3 5 0 10 -7 10 -8 0 -6 5 5 11 9 5 17 19 17 29 0 11
5 20 10 20 6 0 10 7 10 15 0 8 4 15 10 15 5 0 12 17 16 37 4 20 18 47 30 60
13 13 24 30 24 38 0 8 5 15 10 15 6 0 10 6 10 14 0 8 5 16 10 18 6 2 13 36 17
76 3 39 10 72 14 72 5 0 9 23 9 50 0 28 -4 50 -10 50 -5 0 -7 6 -4 14 3 9 -3
17 -15 21 -11 3 -29 17 -40 31 -10 13 -24 24 -31 24 -12 0 -100 84 -100 95 0
3 -6 13 -12 21 -13 15 -22 24 -55 54 -15 13 -14 15 8 20 16 4 20 8 11 14 -6 4
-17 4 -22 1 -16 -10 -48 4 -55 25 -3 10 -15 22 -25 25 -10 3 -22 16 -26 27 -6
21 -76 98 -89 98 -18 0 -35 33 -35 70 0 31 -6 47 -25 64 -14 13 -25 33 -25 45
0 11 -4 21 -10 21 -5 0 -12 27 -16 60 -4 33 -11 60 -15 60 -5 0 -9 47 -9 105
0 58 -4 105 -9 105 -5 0 -13 9 -16 20 -4 14 -15 20 -36 20 -32 0 -49 -12 -65
-45 -14 -27 -1 -322 14 -337 7 -7 12 -22 12 -35 0 -13 5 -23 11 -23 6 0 8 -8
5 -18 -5 -13 3 -27 25 -45 29 -24 31 -29 27 -76 -3 -28 -1 -48 4 -45 4 3 8 1
8 -5 0 -5 9 -12 19 -16 11 -3 23 -15 26 -25 4 -11 17 -23 31 -26 14 -4 24 -13
24 -24 0 -11 10 -22 23 -26 21 -7 21 -7 2 -15 -18 -7 -16 -9 14 -13 9 -1 43
-30 68 -58 6 -7 28 -28 47 -46 20 -18 36 -38 36 -44 0 -6 22 -32 49 -58 28
-26 47 -51 44 -54 -4 -3 -1 -6 5 -6 6 0 22 -11 36 -25 14 -14 30 -25 36 -25 5
0 10 -18 10 -40 0 -22 -4 -40 -9 -40 -5 0 -11 -18 -15 -40 -3 -22 -11 -40 -16
-40 -6 0 -10 -9 -10 -19 0 -15 -5 -18 -22 -14 -16 3 -19 2 -10 -5 10 -7 10
-11 -3 -22 -8 -7 -15 -23 -15 -36 0 -13 -4 -24 -10 -24 -5 0 -12 -16 -16 -35
-3 -19 -10 -35 -15 -35 -5 0 -9 -5 -9 -11 0 -6 -18 -28 -40 -50 -39 -39 -40
-42 -41 -112 -1 -40 -1 -80 0 -89 1 -10 -3 -18 -8 -18 -6 0 -11 -5 -11 -10 0
-6 -5 -17 -12 -24 -10 -11 -15 -11 -26 1 -7 7 -23 13 -34 13 -11 0 -31 12 -44
27 -22 26 -28 28 -114 28 -77 0 -91 -3 -96 -17 -6 -19 -40 -25 -46 -8 -1 5
-34 17 -73 27 -38 10 -75 24 -80 31 -6 7 -20 14 -33 15 -12 0 -22 5 -22 9 0 4
-18 8 -40 8 -31 0 -47 6 -64 25 -22 24 -28 25 -145 25 -68 0 -121 -4 -121 -9
0 -5 -10 -13 -22 -17 -22 -6 -58 -40 -58 -53 0 -3 -31 -5 -70 -3 -41 2 -70 0
-70 -6 0 -5 -10 -12 -23 -16 -12 -3 -33 -15 -45 -27 -21 -19 -25 -19 -35 -5
-9 12 -33 16 -104 17 -51 1 -93 5 -93 10 0 5 -7 9 -15 9 -8 0 -15 4 -15 9 0 5
-15 13 -32 17 -40 8 -68 38 -68 72 0 15 -12 39 -27 54 -24 25 -26 31 -15 49
12 19 11 19 -8 9 -16 -9 -20 -8 -20 5 0 8 -4 15 -10 15 -6 0 -10 30 -10 69 0
82 -1 81 111 81 72 0 113 10 130 33 3 5 26 11 50 14 72 10 103 72 60 121 -15
18 -29 22 -75 22 -31 0 -56 -4 -56 -10 0 -5 -6 -10 -14 -10 -8 0 -16 -6 -18
-12 -3 -9 -38 -14 -114 -16 l-109 -4 -47 -48 -48 -49 0 -125 c0 -77 4 -126 10
-126 6 0 10 -9 10 -19 0 -11 6 -22 13 -24 6 -3 2 -6 -10 -6 -13 -1 -23 -5 -23
-11 0 -5 -11 -10 -25 -10 -14 0 -25 -4 -25 -10 0 -5 -6 -10 -12 -10 -7 0 -34
-11 -61 -24 -26 -14 -60 -27 -75 -31 -15 -3 -36 -17 -46 -30 -10 -14 -24 -25
-31 -25 -8 0 -11 -8 -8 -20 3 -11 0 -20 -6 -20 -6 0 -11 -6 -11 -14 0 -7 -7
-19 -15 -26 -8 -7 -15 -25 -15 -41 0 -16 -4 -29 -10 -29 -5 0 -10 -7 -10 -15
0 -8 -10 -24 -22 -37 -27 -27 -58 -91 -58 -118 0 -10 -9 -22 -20 -25 -11 -4
-18 -11 -15 -16 4 -5 -1 -9 -11 -9 -9 0 -27 -11 -40 -25 -31 -33 -64 -33 -64
-1 0 14 4 27 9 30 12 8 -4 89 -19 94 -9 3 -9 7 1 13 9 5 -8 9 -46 9 -35 0 -55
-4 -47 -9 10 -6 10 -10 -3 -21 -8 -7 -15 -19 -15 -26 0 -8 -4 -14 -10 -14 -5
0 -12 -17 -16 -37 -4 -21 -15 -45 -26 -54 -10 -9 -18 -19 -18 -22 0 -3 -4 -17
-10 -32 l-10 -25 -38 37 c-21 21 -37 41 -35 46 2 4 -1 7 -6 7 -6 0 -11 5 -11
11 0 7 -8 19 -18 28 -11 9 -22 33 -26 54 -4 20 -11 37 -16 37 -6 0 -10 7 -10
15 0 8 -4 15 -9 15 -5 0 -12 20 -15 45 -4 25 -11 45 -17 45 -5 0 -9 11 -9 25
0 14 -4 25 -10 25 -5 0 -10 11 -10 24 0 14 -7 32 -17 41 -14 14 -14 18 -2 26
9 5 10 9 2 9 -20 0 -43 30 -43 56 0 13 -4 24 -10 24 -5 0 -10 11 -10 25 0 14
-4 25 -10 25 -5 0 -12 11 -16 25 -3 14 -10 25 -15 25 -5 0 -9 7 -9 15 0 8 -4
15 -9 15 -5 0 -11 13 -14 30 -6 28 -77 110 -97 110 -5 0 -20 10 -32 23 -36 34
-83 57 -117 57 -17 0 -31 4 -31 9 0 5 -26 13 -57 17 -33 4 -65 14 -77 25 -11
10 -34 22 -53 25 -18 3 -33 10 -33 15 0 5 -9 9 -20 9 -12 0 -31 11 -44 25 -13
14 -28 25 -35 25 -6 0 -11 4 -11 10 0 5 -11 12 -25 16 -14 3 -25 12 -25 18 0
7 -11 18 -25 24 -14 6 -25 16 -25 22 0 5 -9 10 -19 10 -11 0 -23 9 -26 20 -4
11 -10 18 -14 16 -4 -3 -15 6 -25 20 -11 13 -27 24 -37 24 -10 0 -21 9 -24 20
-3 11 -11 20 -16 20 -6 0 -7 5 -4 10 3 6 -1 10 -10 10 -8 0 -18 7 -21 15 -3 8
-14 17 -24 20 -11 3 -22 15 -25 25 -3 10 -15 22 -25 25 -10 3 -22 15 -25 25
-3 10 -15 22 -26 25 -14 5 -18 12 -14 23 3 9 3 13 -1 10 -3 -4 -12 -2 -20 5
-30 27 -43 37 -49 37 -19 0 -83 83 -89 115 -4 19 -10 35 -14 35 -11 0 -30 51
-37 103 -4 26 -11 47 -16 47 -5 0 -9 11 -9 25 0 14 -4 25 -9 25 -5 0 -12 29
-16 65 -3 36 -11 65 -16 65 -5 0 -9 20 -9 45 0 25 -4 45 -9 45 -5 0 -13 29
-16 65 -4 36 -11 68 -16 71 -5 3 -9 25 -9 50 0 24 -4 44 -10 44 -18 0 -11 30
8 31 13 0 12 2 -5 9 -18 7 -23 17 -23 45 0 19 -4 35 -10 35 -5 0 -10 18 -10
39 0 22 -5 41 -11 43 -7 2 -13 58 -16 151 -3 81 -10 150 -14 153 -12 7 -11
321 0 329 6 3 13 37 17 75 4 39 11 73 15 76 5 3 9 18 9 35 0 16 4 29 9 29 4 0
11 27 15 60 4 33 11 60 16 60 6 0 10 7 10 15 0 8 5 15 10 15 6 0 10 16 10 35
0 22 6 38 15 41 9 4 15 19 15 35 0 16 4 29 9 29 5 0 12 11 15 25 4 16 11 22
20 19 11 -4 13 0 9 15 -3 12 -1 21 5 21 5 0 13 11 16 25 4 14 11 25 16 25 6 0
10 7 10 15 0 8 4 15 9 15 5 0 12 9 16 19 3 12 19 21 40 25 19 4 35 11 35 16 0
6 6 10 13 10 15 0 67 47 67 60 0 5 7 6 17 3 12 -5 14 -3 8 7 -5 9 -4 11 3 6 7
-4 17 -4 23 0 8 5 8 8 0 14 -12 7 102 130 121 130 6 0 33 23 59 50 26 28 52
50 58 50 5 0 25 16 45 35 30 28 36 42 36 75 0 22 -4 40 -9 40 -5 0 -12 13 -16
29 -3 15 -17 38 -30 50 -14 11 -25 30 -25 42 0 13 -4 18 -12 13 -8 -5 -9 0 -5
15 4 17 2 21 -9 17 -9 -3 -14 1 -14 13 0 16 11 19 81 24 45 3 85 10 88 15 3 5
19 10 35 10 15 0 31 5 35 11 4 6 18 11 32 10 44 -1 114 14 124 27 6 7 33 14
62 16 29 2 55 7 59 11 4 4 22 7 41 7 18 0 33 5 33 10 0 6 6 10 14 10 8 0 16 5
18 10 2 6 35 13 73 17 38 3 64 8 57 11 -16 5 -16 28 1 30 93 6 187 27 187 41
0 5 41 12 90 15 50 4 90 12 90 17 0 5 11 9 25 9 14 0 25 5 25 11 0 6 18 9 45
8 24 -2 47 0 51 4 4 4 22 7 41 7 26 0 33 4 33 19 0 16 11 20 80 26 44 4 80 11
80 16 0 5 50 9 110 9 61 0 110 -4 110 -9 0 -4 33 -11 72 -14 40 -4 74 -11 76
-17 2 -5 34 -10 73 -10 38 0 69 -4 69 -9 0 -5 18 -11 40 -15 30 -5 40 -11 40
-25 0 -14 10 -20 39 -25 22 -3 41 -11 43 -18 2 -6 18 -11 36 -11 18 0 32 -4
32 -8 0 -7 86 -24 108 -20 6 1 12 -3 12 -9 0 -5 7 -10 16 -10 8 0 13 -4 10 -9
-11 -17 61 -21 380 -21 209 0 324 -4 324 -10 0 -6 45 -10 115 -10 70 0 115 -4
115 -10 0 -6 76 -10 209 -10 131 0 212 -4 216 -10 4 -6 11 -8 16 -5 5 4 9 1 9
-4 0 -6 7 -11 15 -11 9 0 26 -11 39 -25 24 -26 86 -36 86 -14 0 5 4 8 9 5 4
-3 6 7 3 22 -6 30 -49 76 -81 87 -11 3 -21 11 -21 16 0 5 -7 9 -15 9 -8 0 -15
4 -15 8 0 5 -145 12 -322 15 -198 5 -324 11 -326 17 -2 6 -126 10 -338 10
-184 0 -334 4 -334 9 0 5 -18 11 -40 15 -22 3 -40 11 -40 16 0 6 -16 10 -35
10 -19 0 -35 3 -35 8 0 10 -47 29 -93 37 -21 3 -35 10 -32 16 4 5 -7 9 -24 9
-16 0 -36 7 -45 15 -8 8 -19 15 -24 15 -6 0 -12 5 -14 11 -2 7 -42 13 -96 17
-51 2 -92 9 -92 13 0 5 -6 9 -14 9 -8 0 -16 6 -18 12 -6 17 -485 19 -496 2 -4
-7 -20 -12 -36 -12 -16 0 -33 -7 -38 -16 -6 -10 -22 -16 -43 -16 -19 0 -35 -4
-35 -10 0 -5 -21 -10 -46 -10 -25 0 -43 -4 -40 -9 4 -5 -28 -12 -69 -16 -41
-4 -75 -11 -75 -16 0 -5 -18 -9 -40 -9 -22 0 -57 -7 -77 -15 -19 -8 -51 -15
-69 -15 -19 0 -34 -4 -34 -10 0 -5 -16 -10 -36 -10 -19 0 -42 -7 -50 -15 -9
-8 -24 -15 -35 -15 -11 0 -17 -4 -14 -10 4 -6 -5 -10 -19 -10 -14 0 -26 -5
-26 -11 0 -7 -12 -10 -29 -7 -17 2 -28 1 -25 -4 3 -4 -11 -8 -30 -8 -20 0 -36
-5 -36 -10 0 -6 -21 -9 -46 -8 -28 1 -49 -4 -54 -11 -4 -7 -28 -16 -54 -18
-25 -3 -46 -10 -46 -14 0 -5 -18 -9 -40 -9 -22 0 -40 -4 -40 -8 0 -4 -8 -8
-17 -9 -43 -5 -83 -16 -83 -24 0 -4 -36 -8 -81 -8 -83 0 -119 15 -119 49 0 9
-9 22 -20 30 -25 18 -25 27 -2 33 14 4 14 5 -3 6 -30 2 -64 36 -71 70 -4 17
-10 31 -15 31 -12 0 -59 53 -59 67 0 7 -4 13 -10 13 -5 0 -10 7 -10 15 0 8
-11 25 -24 38 -13 13 -27 33 -30 45 -4 11 -16 24 -27 27 -10 4 -19 14 -19 24
0 10 -11 27 -25 37 -13 10 -27 30 -30 45 -3 14 -17 36 -30 48 -16 13 -25 31
-25 51 0 23 -6 33 -25 40 -15 6 -25 17 -25 29 0 11 -9 22 -19 26 -11 3 -23 15
-26 25 -3 10 -15 22 -25 25 -10 3 -22 15 -25 26 -4 10 -11 19 -16 19 -5 0 -9
6 -9 14 0 7 -7 19 -15 26 -9 7 -15 29 -15 51 0 22 -4 39 -10 39 -5 0 -10 7
-10 15 0 8 -4 15 -10 15 -5 0 -10 9 -10 20 0 10 -7 23 -16 28 -11 6 -15 18
-12 35 3 17 1 24 -8 20 -7 -2 -15 5 -19 16 -3 12 -11 21 -16 21 -5 0 -9 5 -9
11 0 7 -11 22 -25 35 -14 13 -25 32 -25 43 0 10 -5 21 -11 23 -6 2 -11 26 -12
53 -2 45 0 50 18 47 18 -2 18 -2 3 8 -24 15 -23 27 4 36 12 3 32 17 44 29 12
13 36 29 53 36 17 8 31 17 31 21 0 5 9 8 20 8 11 0 23 7 26 15 4 8 17 15 30
15 13 0 24 5 24 11 0 7 17 10 45 7 25 -2 45 0 45 4 0 5 7 8 15 8 8 0 15 5 15
10 0 6 16 10 35 10 19 0 35 4 35 9 0 5 23 11 50 15 27 4 50 11 50 16 0 6 24
10 54 10 31 0 56 5 58 11 2 7 52 13 131 16 69 3 124 10 121 14 -3 5 116 9 264
9 220 0 275 -3 298 -15 16 -8 39 -15 52 -15 12 0 22 -4 22 -10 0 -5 11 -10 25
-10 14 0 25 -4 25 -10 0 -5 25 -10 55 -10 42 0 59 -5 72 -19 9 -11 20 -18 24
-16 4 3 12 -2 19 -10 7 -8 28 -15 46 -15 19 0 34 -4 34 -10 0 -5 7 -10 15 -10
8 0 15 -4 15 -10 0 -5 16 -12 35 -16 19 -3 35 -10 35 -15 0 -5 13 -9 29 -9 17
0 32 -4 35 -9 3 -5 23 -12 43 -16 21 -4 43 -15 51 -26 7 -10 22 -19 33 -19 10
0 19 -4 19 -9 0 -5 9 -7 20 -4 11 3 20 0 20 -6 0 -6 7 -11 15 -11 8 0 15 -4
15 -9 0 -8 80 -26 108 -24 6 0 12 -3 12 -8 0 -5 16 -9 36 -9 19 0 33 -4 30 -9
-3 -5 32 -12 79 -16 47 -4 85 -11 85 -16 0 -5 16 -9 35 -9 19 0 35 -4 35 -10
0 -6 64 -10 171 -10 111 0 168 3 164 10 -4 6 10 10 34 10 23 0 41 4 41 9 0 5
20 12 45 15 25 4 45 11 45 17 0 5 10 9 23 9 13 0 32 7 43 15 10 8 29 15 42 15
12 0 22 3 22 8 0 11 50 31 65 26 7 -3 19 3 26 13 14 19 77 53 98 53 6 0 11 5
11 10 0 6 9 10 19 10 10 0 21 7 25 15 3 8 17 15 31 15 14 0 25 5 25 11 0 6 8
9 19 6 11 -2 25 3 35 14 9 11 23 19 31 19 8 0 15 5 15 10 0 6 11 10 25 10 14
0 25 4 25 9 0 5 18 12 40 16 22 4 42 11 46 16 3 5 18 9 35 9 16 0 29 4 29 9 0
5 25 13 55 16 30 4 52 11 49 16 -3 5 6 9 20 9 14 0 26 5 26 10 0 6 20 10 44
10 65 0 136 12 130 21 -3 5 51 9 120 9 69 0 126 -4 126 -9z m-1621 -6505 c11
-9 34 -12 69 -10 28 2 52 -1 52 -5 0 -5 45 -12 100 -16 55 -4 100 -11 100 -16
0 -5 31 -9 69 -9 39 0 72 -4 75 -9 4 -7 333 -26 414 -24 12 1 22 -3 22 -8 0
-5 104 -9 235 -9 129 0 235 4 235 8 0 4 10 8 23 9 12 1 75 4 140 8 64 4 120
11 123 16 3 5 41 9 85 9 46 0 79 4 79 10 0 6 35 10 85 10 50 0 85 -4 85 -10 0
-5 7 -10 15 -10 8 0 15 -4 15 -10 0 -5 7 -10 15 -10 18 0 65 -47 65 -65 0 -8
5 -15 10 -15 6 0 10 -7 10 -15 0 -8 5 -15 10 -15 6 0 10 -30 10 -70 0 -40 -4
-70 -10 -70 -5 0 -10 -7 -10 -15 0 -8 -4 -15 -10 -15 -5 0 -10 -12 -10 -26 0
-19 -4 -25 -15 -20 -18 7 -20 -10 -2 -18 10 -5 10 -7 0 -12 -7 -3 -13 -14 -13
-25 0 -10 -4 -19 -10 -19 -5 0 -10 -6 -10 -13 0 -8 -12 -25 -27 -40 -16 -14
-33 -32 -40 -39 -21 -23 -42 -38 -53 -38 -5 0 -10 -4 -10 -10 0 -5 -4 -10 -9
-10 -5 0 -22 -5 -38 -12 -15 -6 -32 -10 -36 -10 -4 1 -10 -4 -13 -13 -3 -8
-21 -17 -40 -21 -19 -3 -34 -10 -34 -14 0 -19 -33 -40 -63 -41 -27 0 -29 -2
-12 -9 19 -8 19 -9 -2 -9 -13 -1 -23 -5 -23 -10 0 -5 -13 -12 -30 -16 -16 -4
-30 -11 -30 -16 0 -5 -9 -9 -20 -9 -11 0 -20 -4 -20 -9 0 -5 -13 -12 -30 -16
-16 -4 -30 -11 -30 -16 0 -5 -15 -9 -34 -9 -19 0 -36 -6 -38 -12 -4 -10 -83
-13 -344 -13 -365 0 -445 3 -456 18 -3 6 -31 9 -62 8 -31 -1 -56 2 -56 7 0 5
-28 12 -62 16 -35 3 -64 11 -66 16 -2 6 -19 10 -38 10 -19 0 -34 4 -34 9 0 5
-18 11 -40 15 -22 3 -40 11 -40 16 0 6 -9 10 -20 10 -11 0 -20 4 -20 9 0 5
-13 12 -30 16 -16 4 -30 11 -30 16 0 5 -9 9 -20 9 -11 0 -20 4 -20 9 0 5 -12
12 -27 16 -15 3 -33 15 -40 25 -8 11 -29 22 -48 26 -19 3 -35 10 -35 15 0 5
-7 9 -15 9 -8 0 -15 4 -15 9 0 5 -10 13 -22 17 -24 7 -58 41 -58 56 0 5 -9 7
-19 3 -14 -4 -21 0 -26 15 -3 11 -15 20 -26 20 -11 0 -22 7 -25 15 -4 8 -15
15 -26 15 -10 0 -16 5 -13 10 3 6 2 10 -4 10 -15 0 -61 49 -61 65 0 8 -4 15
-10 15 -5 0 -10 6 -10 14 0 8 -5 16 -10 18 -15 5 -26 193 -12 202 6 4 9 13 5
21 -3 8 0 15 6 15 6 0 11 5 11 11 0 14 55 69 69 69 6 0 11 4 11 10 0 5 6 7 14
4 8 -3 17 0 21 7 11 17 263 4 284 -15z"/>
<path d="M5120 10190 c0 -5 7 -10 16 -10 8 0 12 5 9 10 -3 6 -10 10 -16 10 -5
0 -9 -4 -9 -10z"/>
<path d="M4405 10184 c71 -8 165 -8 165 -1 0 4 -44 6 -97 5 -54 0 -84 -3 -68
-4z"/>
<path d="M7590 10186 c0 -2 11 -6 25 -8 14 -3 25 -1 25 3 0 5 -11 9 -25 9 -14
0 -25 -2 -25 -4z"/>
<path d="M7660 10181 c0 -10 19 -25 25 -20 1 2 -3 10 -11 17 -8 7 -14 8 -14 3z"/>
<path d="M4437 10143 c18 -2 50 -2 70 0 21 2 7 4 -32 4 -38 0 -55 -2 -38 -4z"/>
<path d="M7567 10119 c7 -7 15 -10 18 -7 3 3 -2 9 -12 12 -14 6 -15 5 -6 -5z"/>
<path d="M5518 10043 c6 -2 18 -2 25 0 6 3 1 5 -13 5 -14 0 -19 -2 -12 -5z"/>
<path d="M7238 10043 c6 -2 18 -2 25 0 6 3 1 5 -13 5 -14 0 -19 -2 -12 -5z"/>
<path d="M5670 9990 c0 -5 5 -10 10 -10 6 0 10 5 10 10 0 6 -4 10 -10 10 -5 0
-10 -4 -10 -10z"/>
<path d="M5826 9925 c-3 -8 -1 -15 4 -15 6 0 10 7 10 15 0 8 -2 15 -4 15 -2 0
-6 -7 -10 -15z"/>
<path d="M6973 9913 c9 -2 23 -2 30 0 6 3 -1 5 -18 5 -16 0 -22 -2 -12 -5z"/>
<path d="M6315 9780 c3 -5 10 -10 16 -10 5 0 9 5 9 10 0 6 -7 10 -16 10 -8 0
-12 -4 -9 -10z"/>
<path d="M6480 9780 c41 -3 79 -3 85 2 5 4 -29 7 -75 6 l-85 -1 75 -7z"/>
<path d="M6437 9743 c18 -2 50 -2 70 0 21 2 7 4 -32 4 -38 0 -55 -2 -38 -4z"/>
<path d="M6273 9432 c-138 -1 -213 -6 -213 -13 0 -6 -69 -10 -197 -10 -285 -1
-503 -9 -503 -20 0 -5 -29 -9 -64 -9 -42 0 -66 -4 -68 -12 -3 -8 -33 -14 -86
-16 -45 -2 -82 -8 -82 -14 0 -6 -31 -8 -75 -6 -58 2 -75 0 -75 -11 0 -9 -8
-12 -25 -9 -14 3 -25 1 -25 -3 0 -5 -56 -9 -125 -9 l-125 0 -6 -27 c-14 -52 0
-58 155 -61 92 -2 141 1 141 8 0 5 14 10 30 10 17 0 30 4 30 9 0 4 60 11 132
15 73 4 135 11 138 14 3 4 14 9 25 10 11 2 23 8 26 13 3 5 93 12 200 16 107 3
199 10 205 15 7 5 103 8 215 8 137 -1 205 2 207 9 5 15 372 15 372 1 0 -5 9
-10 20 -10 11 0 20 -4 20 -9 0 -5 18 -11 39 -15 22 -3 41 -11 43 -16 2 -6 13
-12 26 -13 12 0 22 -4 22 -8 0 -3 18 -9 40 -13 23 -3 40 -12 40 -19 0 -9 11
-12 35 -9 20 2 35 0 35 -6 0 -5 33 -13 72 -17 52 -5 77 -13 89 -26 16 -18 38
-19 443 -19 277 0 426 3 426 10 0 6 80 10 220 10 140 0 220 -4 220 -10 0 -5 7
-10 15 -10 8 0 15 -7 15 -15 0 -10 11 -15 35 -15 19 0 35 -4 35 -10 0 -5 7
-10 16 -10 9 0 12 -5 8 -12 -5 -7 -2 -9 9 -5 10 4 18 -1 22 -14 4 -10 15 -19
26 -19 15 0 19 -5 15 -18 -5 -16 -2 -18 25 -14 21 3 30 1 25 -6 -3 -6 7 -16
24 -24 17 -7 28 -18 26 -24 -3 -7 9 -14 25 -18 32 -6 62 -30 52 -40 -4 -3 13
-6 36 -6 84 0 99 70 21 95 -14 4 -32 16 -41 26 -9 11 -21 19 -28 19 -6 0 -11
5 -11 11 0 18 -24 35 -58 42 -19 4 -48 22 -68 42 -18 19 -41 35 -50 35 -10 0
-14 3 -11 7 11 10 -30 34 -47 27 -8 -3 -25 1 -38 10 -20 14 -20 16 -4 16 11 0
16 3 12 8 -4 4 -314 7 -689 7 -535 0 -681 3 -684 13 -3 6 -18 12 -33 12 -16 0
-31 4 -35 9 -3 5 -34 13 -70 16 -36 4 -65 11 -65 16 0 5 -11 9 -25 9 -14 0
-25 4 -25 9 0 5 -21 12 -47 16 -26 4 -54 15 -63 24 -8 10 -32 21 -53 25 -24 4
-37 12 -34 19 3 7 -6 12 -22 12 -14 0 -122 -1 -238 -3z"/>
<path d="M8702 9424 c-7 -8 -8 -14 -3 -14 10 0 25 19 20 25 -2 1 -10 -3 -17
-11z"/>
<path d="M5318 9413 c7 -3 16 -2 19 1 4 3 -2 6 -13 5 -11 0 -14 -3 -6 -6z"/>
<path d="M5108 9383 c17 -2 47 -2 65 0 17 2 3 4 -33 4 -36 0 -50 -2 -32 -4z"/>
<path d="M6705 9380 c3 -5 8 -10 11 -10 2 0 4 5 4 10 0 6 -5 10 -11 10 -5 0
-7 -4 -4 -10z"/>
<path d="M5170 9229 c0 -5 9 -9 19 -9 11 0 22 4 25 9 3 5 -6 9 -19 9 -14 0
-25 -4 -25 -9z"/>
<path d="M4898 9193 c7 -3 16 -2 19 1 4 3 -2 6 -13 5 -11 0 -14 -3 -6 -6z"/>
<path d="M4978 9193 c7 -3 16 -2 19 1 4 3 -2 6 -13 5 -11 0 -14 -3 -6 -6z"/>
<path d="M5940 8980 c0 -5 5 -10 10 -10 6 0 10 5 10 10 0 6 -4 10 -10 10 -5 0
-10 -4 -10 -10z"/>
<path d="M5978 8983 c7 -3 16 -2 19 1 4 3 -2 6 -13 5 -11 0 -14 -3 -6 -6z"/>
<path d="M6370 8980 c0 -5 4 -10 9 -10 6 0 13 5 16 10 3 6 -1 10 -9 10 -9 0
-16 -4 -16 -10z"/>
<path d="M5416 8842 c-3 -5 8 -6 25 -4 16 2 29 6 29 8 0 8 -49 4 -54 -4z"/>
<path d="M5985 8830 c-3 -5 1 -10 9 -10 8 0 18 5 21 10 3 6 -1 10 -9 10 -8 0
-18 -4 -21 -10z"/>
<path d="M6290 8828 c0 -10 41 -10 57 0 8 5 -1 8 -22 8 -19 0 -35 -4 -35 -8z"/>
<path d="M6518 8793 c7 -3 16 -2 19 1 4 3 -2 6 -13 5 -11 0 -14 -3 -6 -6z"/>
<path d="M8275 8760 c-7 -11 18 -24 35 -18 6 2 1 9 -9 15 -13 8 -22 9 -26 3z"/>
<path d="M4963 8713 c15 -2 39 -2 55 0 15 2 2 4 -28 4 -30 0 -43 -2 -27 -4z"/>
<path d="M8368 8713 c7 -3 16 -2 19 1 4 3 -2 6 -13 5 -11 0 -14 -3 -6 -6z"/>
<path d="M5468 8693 c7 -3 16 -2 19 1 4 3 -2 6 -13 5 -11 0 -14 -3 -6 -6z"/>
<path d="M6733 8693 c9 -2 23 -2 30 0 6 3 -1 5 -18 5 -16 0 -22 -2 -12 -5z"/>
<path d="M5548 8663 c7 -3 16 -2 19 1 4 3 -2 6 -13 5 -11 0 -14 -3 -6 -6z"/>
<path d="M4578 8613 c7 -3 16 -2 19 1 4 3 -2 6 -13 5 -11 0 -14 -3 -6 -6z"/>
<path d="M4628 8613 c7 -3 16 -2 19 1 4 3 -2 6 -13 5 -11 0 -14 -3 -6 -6z"/>
<path d="M4993 8563 c9 -2 25 -2 35 0 9 3 1 5 -18 5 -19 0 -27 -2 -17 -5z"/>
<path d="M8318 8563 c7 -3 16 -2 19 1 4 3 -2 6 -13 5 -11 0 -14 -3 -6 -6z"/>
<path d="M7895 8530 c-3 -5 1 -10 9 -10 9 0 16 5 16 10 0 6 -4 10 -9 10 -6 0
-13 -4 -16 -10z"/>
<path d="M8793 8313 c9 -2 25 -2 35 0 9 3 1 5 -18 5 -19 0 -27 -2 -17 -5z"/>
<path d="M5340 8224 c-22 -12 -22 -14 -6 -20 18 -7 41 8 35 23 -2 5 -15 3 -29
-3z"/>
<path d="M8126 8231 c-4 -7 -5 -15 -2 -18 9 -9 19 4 14 18 -4 11 -6 11 -12 0z"/>
<path d="M8661 8224 c0 -11 3 -14 6 -6 3 7 2 16 -1 19 -3 4 -6 -2 -5 -13z"/>
<path d="M5841 8210 c-351 -4 -455 -8 -459 -17 -2 -7 -14 -13 -27 -13 -13 0
-25 -5 -27 -11 -2 -5 -38 -13 -81 -16 -43 -3 -80 -10 -83 -14 -3 -5 -16 -9
-30 -9 -13 0 -24 -4 -24 -9 0 -5 -40 -12 -90 -15 -49 -4 -90 -12 -90 -17 0 -5
-22 -9 -50 -9 -27 0 -50 -4 -50 -9 0 -5 -14 -12 -30 -16 -17 -4 -28 -11 -24
-16 3 -5 -4 -9 -14 -9 -25 0 -89 -26 -97 -40 -3 -5 -17 -10 -31 -10 -13 0 -24
-4 -24 -9 0 -5 -21 -20 -47 -33 -50 -24 -69 -62 -41 -79 21 -14 85 -10 102 6
8 8 19 15 25 15 6 0 11 5 11 10 0 6 11 10 24 10 14 0 32 7 40 16 9 8 16 12 16
7 0 -4 6 -1 13 8 7 9 31 20 54 24 28 4 44 13 48 25 5 15 22 19 105 25 55 4
100 10 100 14 0 4 21 8 47 9 26 1 50 7 53 13 4 6 44 13 89 16 44 3 81 10 81
14 0 5 11 9 25 9 14 0 25 4 25 10 0 5 18 13 40 16 22 4 40 10 40 15 0 5 176 9
393 9 l392 0 10 -22 c12 -28 40 -35 60 -14 22 21 20 98 -2 111 -12 6 -181 8
-472 5z"/>
<path d="M8553 8204 c-13 -3 -23 -10 -23 -15 0 -5 -83 -9 -200 -9 -110 0 -200
-4 -200 -9 0 -5 -11 -12 -25 -15 -14 -4 -25 -11 -25 -16 0 -6 -7 -10 -15 -10
-8 0 -15 -4 -15 -9 0 -5 -33 -12 -73 -16 -62 -6 -77 -11 -92 -31 -10 -13 -26
-24 -36 -24 -21 0 -34 -38 -24 -69 5 -17 15 -21 51 -21 24 0 44 4 44 9 0 20
33 41 66 41 19 0 34 5 34 10 0 6 18 10 40 10 22 0 40 4 40 9 0 5 11 12 25 15
14 4 25 11 25 17 0 6 5 7 10 4 6 -3 10 1 10 9 0 12 28 15 183 15 100 1 211 4
245 8 60 6 65 4 85 -19 12 -14 32 -28 45 -32 12 -4 22 -12 22 -17 0 -5 5 -9
11 -9 16 0 39 -26 31 -35 -4 -5 1 -5 11 -2 9 4 17 2 17 -3 0 -6 7 -10 15 -10
8 0 15 -7 15 -15 0 -8 5 -15 10 -15 6 0 22 -11 35 -25 14 -13 25 -29 25 -35 0
-5 7 -10 15 -10 8 0 15 -4 15 -10 0 -5 11 -12 24 -16 24 -6 44 -54 23 -54 -6
0 -7 -3 -4 -6 4 -4 13 -2 21 5 11 9 17 8 29 -4 9 -8 20 -15 26 -15 6 0 11 -4
11 -9 0 -12 74 -24 100 -16 34 11 17 75 -20 75 -6 0 -8 5 -5 10 3 6 -1 10 -10
10 -8 0 -18 7 -21 15 -4 8 -14 15 -24 15 -24 0 -34 27 -12 33 9 2 0 3 -20 1
-29 -3 -38 0 -43 15 -3 11 -15 23 -26 26 -10 4 -19 11 -19 16 0 5 -14 21 -30
36 -22 19 -27 29 -18 35 8 5 1 8 -18 8 -21 0 -37 8 -50 24 -10 14 -28 27 -41
31 -13 3 -23 10 -23 15 0 6 -5 10 -10 10 -10 0 -22 8 -55 38 -7 6 -18 12 -23
12 -6 0 -12 4 -14 10 -3 11 -111 21 -145 14z"/>
<path d="M9260 8180 c0 -5 5 -10 11 -10 5 0 7 5 4 10 -3 6 -8 10 -11 10 -2 0
-4 -4 -4 -10z"/>
<path d="M7845 8080 c-3 -5 1 -10 10 -10 9 0 13 5 10 10 -3 6 -8 10 -10 10 -2
0 -7 -4 -10 -10z"/>
<path d="M4688 8043 c12 -2 32 -2 45 0 12 2 2 4 -23 4 -25 0 -35 -2 -22 -4z"/>
<path d="M9538 8043 c6 -2 18 -2 25 0 6 3 1 5 -13 5 -14 0 -19 -2 -12 -5z"/>
<path d="M4965 7989 c-11 -16 -1 -19 13 -3 7 8 8 14 3 14 -5 0 -13 -5 -16 -11z"/>
<path d="M5128 7993 c7 -3 16 -2 19 1 4 3 -2 6 -13 5 -11 0 -14 -3 -6 -6z"/>
<path d="M9048 7943 c7 -3 16 -2 19 1 4 3 -2 6 -13 5 -11 0 -14 -3 -6 -6z"/>
<path d="M4728 7893 c7 -3 16 -2 19 1 4 3 -2 6 -13 5 -11 0 -14 -3 -6 -6z"/>
<path d="M8888 7893 c7 -3 16 -2 19 1 4 3 -2 6 -13 5 -11 0 -14 -3 -6 -6z"/>
<path d="M8881 7854 c0 -11 3 -14 6 -6 3 7 2 16 -1 19 -3 4 -6 -2 -5 -13z"/>
<path d="M6322 7793 c0 -5 -2 -16 -6 -25 -13 -30 -2 -52 32 -62 32 -9 40 -20
22 -31 -5 -3 -10 -11 -10 -16 0 -6 7 -3 17 6 15 15 17 15 25 1 5 -9 13 -14 19
-11 5 4 9 1 9 -6 0 -6 8 -19 19 -28 10 -9 21 -26 25 -38 4 -12 16 -25 26 -28
21 -7 35 -39 24 -57 -5 -8 -2 -9 10 -5 15 6 17 1 15 -37 -2 -25 3 -51 10 -60
17 -21 57 -21 65 0 10 26 7 154 -4 154 -5 0 -10 7 -10 15 0 8 -13 27 -30 42
-16 14 -30 32 -30 40 0 7 -4 13 -10 13 -5 0 -9 3 -9 8 3 20 -3 31 -22 37 -25
8 -80 61 -71 69 3 3 -9 6 -26 6 -18 0 -32 5 -32 10 0 6 -13 10 -30 10 -16 0
-29 -3 -28 -7z"/>
<path d="M4185 7739 c-4 -6 -5 -12 -2 -15 2 -3 7 2 10 11 7 17 1 20 -8 4z"/>
<path d="M9080 7730 c0 -5 5 -10 11 -10 5 0 7 5 4 10 -3 6 -8 10 -11 10 -2 0
-4 -4 -4 -10z"/>
<path d="M7943 7686 c-13 -15 -30 -436 -19 -480 4 -17 13 -26 27 -26 41 0 49
22 49 139 0 61 4 111 9 111 12 0 20 242 8 258 -12 16 -59 15 -74 -2z"/>
<path d="M4018 7513 c7 -3 16 -2 19 1 4 3 -2 6 -13 5 -11 0 -14 -3 -6 -6z"/>
<path d="M4060 7511 c0 -10 19 -25 25 -20 1 2 -3 10 -11 17 -8 7 -14 8 -14 3z"/>
<path d="M6480 7461 c0 -10 19 -25 25 -20 1 2 -3 10 -11 17 -8 7 -14 8 -14 3z"/>
<path d="M4918 7243 c7 -3 16 -2 19 1 4 3 -2 6 -13 5 -11 0 -14 -3 -6 -6z"/>
<path d="M5374 7243 c211 -3 294 -7 305 -16 14 -11 14 -10 2 6 -12 16 -38 17
-305 15 l-291 -3 289 -2z"/>
<path d="M4819 7194 c-19 -20 -25 -58 -13 -88 3 -9 10 -13 15 -10 5 3 9 0 9
-5 0 -6 11 -11 25 -11 14 0 25 -4 25 -10 0 -5 -4 -10 -9 -10 -5 0 -12 -11 -15
-25 -4 -16 -11 -22 -21 -19 -11 5 -13 2 -9 -11 4 -10 1 -21 -7 -26 -22 -13
-26 -191 -5 -212 9 -8 16 -18 16 -22 0 -11 28 -35 42 -36 7 -1 2 -5 -12 -10
-23 -8 -22 -8 8 -5 17 1 32 -1 32 -6 0 -4 7 -8 15 -8 8 0 15 -4 15 -10 0 -5 7
-10 15 -10 8 0 15 -7 15 -15 0 -8 5 -15 10 -15 6 0 10 -4 10 -10 0 -5 -10 -10
-23 -10 -22 0 -57 -20 -85 -47 -7 -7 -23 -13 -34 -13 -12 0 -19 -3 -15 -6 5
-6 0 -15 -30 -49 -19 -21 -16 -101 4 -125 34 -40 113 -18 113 31 0 29 27 52
61 52 17 0 29 6 29 14 0 7 11 13 24 13 13 0 26 4 28 10 2 5 38 13 81 16 42 4
77 11 77 15 0 5 9 9 20 9 11 0 20 4 20 9 0 5 27 12 61 16 33 4 58 10 54 13 -8
8 79 33 138 39 26 3 47 9 47 14 0 5 25 9 55 9 30 0 55 5 55 10 0 6 48 10 125
10 77 0 125 -4 125 -10 0 -6 35 -10 85 -10 47 0 85 -4 85 -9 0 -8 77 -22 128
-23 12 0 22 -4 22 -9 0 -5 9 -9 20 -9 12 0 17 -5 14 -13 -3 -8 2 -14 13 -14
59 1 73 -4 78 -26 5 -19 11 -22 50 -19 33 3 46 9 50 23 4 10 11 19 16 19 18 0
8 52 -16 77 -19 22 -22 30 -12 42 10 12 9 12 -12 0 -18 -11 -25 -11 -28 -1 -3
6 -14 12 -24 12 -11 0 -18 4 -14 9 3 5 -5 12 -17 14 -23 4 -23 4 1 6 50 3 81
80 45 115 -14 15 -14 16 3 17 10 1 -1 5 -24 11 -24 5 -43 13 -43 19 0 5 -6 9
-14 9 -7 0 -19 7 -26 15 -7 8 -27 15 -44 15 -20 0 -36 7 -44 20 -7 12 -28 22
-52 26 -22 4 -40 10 -40 14 0 4 -8 10 -17 14 -25 8 -55 28 -74 49 -10 10 -31
17 -53 17 -26 0 -42 7 -58 25 -12 14 -30 25 -40 25 -10 0 -18 5 -18 11 0 5 -4
7 -10 4 -5 -3 -10 -1 -10 4 0 6 -7 11 -16 11 -8 0 -13 4 -9 10 3 5 13 6 22 3
15 -6 16 -5 3 9 -8 9 -16 12 -18 7 -7 -18 -50 -8 -68 16 -13 17 -28 25 -50 25
-17 0 -33 2 -36 5 -3 3 -189 7 -412 8 -400 2 -408 2 -427 -19z m586 -123 c0
-8 -12 -18 -27 -22 -45 -12 -58 -33 -65 -104 -3 -36 -10 -68 -14 -71 -5 -3 -9
-45 -9 -93 0 -94 -7 -111 -50 -111 -14 0 -30 -4 -35 -9 -6 -5 -23 -11 -39 -13
-22 -2 -33 2 -40 17 -15 27 -71 85 -83 85 -5 0 -20 11 -33 25 -13 14 -28 25
-34 25 -15 0 -56 41 -56 56 0 19 40 88 56 97 8 4 14 17 14 27 0 10 4 21 9 24
5 3 12 17 15 32 14 53 17 54 211 51 148 -2 180 -5 180 -16z m700 -242 c5 -5
17 -9 27 -9 10 0 21 -7 24 -15 4 -9 19 -15 39 -15 35 0 61 -22 49 -41 -5 -8
-32 -10 -96 -5 -50 3 -94 8 -99 12 -5 3 -9 25 -9 50 0 43 1 44 28 38 15 -4 31
-11 37 -15z"/>
<path d="M8868 7058 c-13 -3 -40 -6 -60 -7 -21 -1 -38 -5 -38 -11 0 -5 -9 -10
-20 -10 -11 0 -20 -4 -20 -9 0 -5 -25 -13 -55 -16 -30 -4 -55 -11 -55 -16 0
-5 -9 -9 -20 -9 -11 0 -20 -4 -20 -9 0 -4 -63 -11 -141 -14 -81 -3 -146 -10
-152 -16 -6 -6 -21 -11 -34 -11 -13 0 -23 -4 -23 -9 0 -5 -12 -12 -26 -15 -34
-9 -95 -71 -118 -121 -17 -34 -23 -132 -13 -189 1 -5 -7 -12 -17 -14 -49 -11
-76 -100 -38 -128 12 -10 14 -16 5 -21 -6 -5 13 -8 43 -8 30 0 54 4 54 8 0 5
-4 5 -10 2 -5 -3 -10 -2 -10 3 0 12 24 22 51 22 10 0 19 4 19 8 0 4 10 8 22 9
11 1 24 6 27 11 3 5 23 12 44 16 20 4 37 12 37 18 0 6 11 8 30 5 20 -4 34 -1
46 10 14 14 53 16 314 17 283 1 300 0 313 -18 9 -12 20 -17 31 -13 9 4 16 3
16 -2 0 -5 11 -12 25 -15 14 -4 25 -11 25 -16 0 -6 11 -10 25 -10 15 0 24 -5
23 -12 -3 -13 3 -14 51 -17 18 -1 22 -5 17 -18 -4 -10 -4 -14 0 -11 3 4 12 2
20 -5 7 -7 20 -17 28 -24 8 -7 16 -17 18 -23 5 -15 82 -32 86 -19 2 5 10 16
18 23 16 16 19 86 4 86 -5 0 -6 7 -3 17 4 11 3 14 -5 9 -7 -4 -27 10 -49 34
-20 22 -44 40 -53 40 -12 0 -12 2 -1 9 10 6 10 10 1 16 -6 4 -14 4 -17 1 -3
-3 -15 1 -27 9 -11 8 -30 15 -41 15 -19 0 -20 6 -20 129 0 129 0 129 -27 153
-16 13 -28 27 -28 31 0 4 27 7 60 7 72 0 100 19 100 66 0 57 -16 62 -212 66
-98 2 -188 0 -200 -4z m-298 -293 l0 -75 -44 0 c-25 0 -48 -4 -51 -10 -3 -5
-37 -10 -74 -10 -37 0 -71 -4 -76 -9 -6 -5 -31 -11 -56 -13 -38 -4 -50 -2 -64
15 -15 17 -15 23 -4 46 26 50 75 91 108 91 17 0 31 5 31 10 0 6 18 10 39 10
22 0 43 5 46 10 3 6 37 10 76 10 l69 0 0 -75z"/>
<path d="M8298 7013 c7 -3 16 -2 19 1 4 3 -2 6 -13 5 -11 0 -14 -3 -6 -6z"/>
<path d="M8545 7010 c3 -5 10 -10 16 -10 5 0 9 5 9 10 0 6 -7 10 -16 10 -8 0
-12 -4 -9 -10z"/>
<path d="M8313 6973 c9 -2 23 -2 30 0 6 3 -1 5 -18 5 -16 0 -22 -2 -12 -5z"/>
<path d="M8018 6613 c7 -3 16 -2 19 1 4 3 -2 6 -13 5 -11 0 -14 -3 -6 -6z"/>
<path d="M6090 6585 c0 -8 2 -15 4 -15 2 0 6 7 10 15 3 8 1 15 -4 15 -6 0 -10
-7 -10 -15z"/>
<path d="M5414 6560 c17 -6 36 -5 45 0 11 7 3 9 -29 9 -42 -1 -43 -1 -16 -9z"/>
<path d="M4928 6393 c6 -2 18 -2 25 0 6 3 1 5 -13 5 -14 0 -19 -2 -12 -5z"/>
<path d="M4982 6386 c7 -8 15 -12 17 -11 5 6 -10 25 -20 25 -5 0 -4 -6 3 -14z"/>
<path d="M9137 6383 c3 -7 9 -13 13 -13 4 0 10 6 13 13 3 7 -3 13 -13 13 -10
0 -16 -6 -13 -13z"/>
<path d="M9213 6393 c15 -2 27 -9 27 -14 0 -5 5 -9 11 -9 8 0 8 5 -1 15 -7 8
-24 14 -39 14 l-26 -2 28 -4z"/>
<path d="M8680 6210 c0 -5 7 -7 15 -4 8 4 15 8 15 10 0 2 -7 4 -15 4 -8 0 -15
-4 -15 -10z"/>
<path d="M6160 6180 l-55 -7 58 -1 c32 -1 57 2 57 8 0 6 -1 9 -2 8 -2 -1 -28
-4 -58 -8z"/>
<path d="M8110 6180 c0 -5 7 -10 16 -10 8 0 12 5 9 10 -3 6 -10 10 -16 10 -5
0 -9 -4 -9 -10z"/>
<path d="M8410 6180 c0 -5 21 -10 47 -10 55 0 53 8 -5 15 -25 3 -42 1 -42 -5z"/>
<path d="M8600 6170 c0 -5 -22 -10 -50 -10 -27 0 -50 -4 -50 -8 0 -4 -16 -6
-36 -4 -51 6 -84 -14 -84 -51 0 -17 8 -36 18 -43 20 -16 138 -19 147 -4 3 6
33 10 66 10 33 0 59 4 59 10 0 6 11 10 25 10 14 0 25 -4 25 -10 0 -5 10 -10
23 -10 12 0 31 -7 41 -15 11 -8 35 -15 53 -15 18 0 33 -4 33 -10 0 -5 11 -10
25 -10 14 0 25 -4 25 -10 0 -5 18 -13 40 -16 22 -4 40 -10 40 -15 0 -5 6 -9
13 -9 7 0 24 -11 39 -25 15 -14 30 -25 32 -25 11 0 46 -35 46 -45 0 -5 22 -31
49 -57 51 -49 82 -59 107 -34 16 17 19 66 4 66 -5 0 -10 7 -10 16 0 21 -163
184 -184 184 -9 0 -16 5 -16 10 0 6 -7 10 -15 10 -8 0 -15 5 -15 10 0 6 -11
10 -24 10 -14 0 -31 7 -40 15 -8 8 -26 15 -40 15 -14 0 -26 4 -26 9 0 4 -21
11 -47 14 -26 3 -49 10 -51 16 -2 6 -12 11 -23 11 -10 0 -19 5 -19 10 0 6 -37
10 -90 10 -53 0 -90 -4 -90 -10z"/>
<path d="M8818 6173 c7 -3 16 -2 19 1 4 3 -2 6 -13 5 -11 0 -14 -3 -6 -6z"/>
<path d="M6117 6143 c-4 -4 -24 -8 -45 -10 -20 -1 -38 -7 -40 -13 -2 -5 -33
-10 -68 -10 -35 0 -64 -4 -64 -9 0 -5 -22 -12 -50 -16 -27 -4 -50 -11 -50 -16
0 -5 -9 -9 -20 -9 -11 0 -20 -3 -20 -8 0 -4 -22 -15 -50 -25 -27 -10 -50 -22
-50 -27 0 -6 -18 -13 -40 -16 -22 -4 -40 -10 -40 -15 0 -5 -7 -9 -15 -9 -8 0
-15 -4 -15 -10 0 -5 -11 -10 -24 -10 -14 0 -31 -7 -40 -15 -8 -8 -17 -15 -21
-15 -4 0 -13 -6 -20 -12 -30 -27 -44 -38 -50 -38 -13 0 -133 -127 -139 -147
-4 -13 -12 -23 -17 -23 -15 0 -11 -100 5 -116 29 -28 86 -8 86 30 0 9 6 16 13
16 9 0 9 2 -1 8 -9 6 -3 18 23 43 19 19 35 39 35 44 0 15 37 45 56 45 8 0 12
5 9 10 -3 6 1 10 11 10 9 0 30 14 46 30 15 17 35 30 43 30 18 0 57 20 67 35 5
6 15 5 29 -3 11 -7 24 -11 27 -8 3 3 0 6 -7 6 -7 0 -9 5 -6 10 3 6 15 10 26
10 11 0 17 5 14 10 -3 6 1 10 10 10 18 0 78 30 83 43 2 4 12 7 23 7 10 0 19 4
19 9 0 5 20 12 45 15 24 4 47 11 50 17 4 5 35 9 71 9 35 0 64 4 64 9 0 5 18
11 40 13 22 2 40 0 40 -4 0 -5 15 -8 33 -7 30 1 30 2 7 8 l-25 7 31 14 c26 11
29 17 26 44 -3 17 -10 35 -16 41 -13 12 -89 18 -99 8z"/>
<path d="M8730 6028 c0 -4 9 -8 20 -8 11 0 20 4 20 8 0 4 -9 8 -20 8 -11 0
-20 -4 -20 -8z"/>
<path d="M8548 6023 c6 -2 18 -2 25 0 6 3 1 5 -13 5 -14 0 -19 -2 -12 -5z"/>
<path d="M8618 6023 c7 -3 16 -2 19 1 4 3 -2 6 -13 5 -11 0 -14 -3 -6 -6z"/>
<path d="M4068 5993 c7 -3 16 -2 19 1 4 3 -2 6 -13 5 -11 0 -14 -3 -6 -6z"/>
<path d="M5380 5961 c0 -10 19 -25 25 -20 1 2 -3 10 -11 17 -8 7 -14 8 -14 3z"/>
<path d="M5410 5909 c0 -5 5 -7 10 -4 6 3 10 8 10 11 0 2 -4 4 -10 4 -5 0 -10
-5 -10 -11z"/>
<path d="M5802 5904 c-7 -8 -8 -14 -3 -14 10 0 25 19 20 25 -2 1 -10 -3 -17
-11z"/>
<path d="M9214 5729 c-3 -5 6 -9 20 -9 31 0 34 6 6 13 -11 3 -23 1 -26 -4z"/>
<path d="M9152 5716 c7 -8 15 -12 17 -11 5 6 -10 25 -20 25 -5 0 -4 -6 3 -14z"/>
<path d="M5380 5585 c-7 -8 -9 -15 -6 -15 4 0 14 7 22 15 9 8 11 15 6 15 -5 0
-15 -7 -22 -15z"/>
<path d="M4248 5493 c7 -3 16 -2 19 1 4 3 -2 6 -13 5 -11 0 -14 -3 -6 -6z"/>
<path d="M8940 5420 c0 -5 5 -10 10 -10 6 0 10 5 10 10 0 6 -4 10 -10 10 -5 0
-10 -4 -10 -10z"/>
<path d="M8695 5384 c-18 -14 -20 -61 -2 -78 7 -7 47 -15 89 -18 52 -3 82 -10
92 -21 9 -9 23 -14 31 -11 8 4 15 1 15 -5 0 -6 7 -11 16 -11 9 0 12 -5 8 -12
-5 -8 -2 -9 9 -5 11 4 17 1 17 -8 0 -7 -8 -16 -17 -18 -14 -4 -13 -5 4 -6 12
0 37 -17 57 -36 34 -33 47 -53 26 -40 -5 3 -10 -1 -10 -9 0 -9 9 -16 20 -16
11 0 20 -7 20 -15 0 -11 -8 -13 -30 -8 -19 3 -30 1 -30 -6 0 -6 15 -11 33 -11
21 0 38 -7 47 -20 17 -24 74 -27 96 -6 16 17 19 66 4 66 -5 0 -10 9 -10 20 0
11 -7 23 -15 26 -8 4 -15 12 -15 20 0 8 -15 29 -34 47 -18 18 -37 43 -41 57
-8 25 -48 70 -63 70 -5 0 -15 7 -22 15 -7 8 -23 15 -37 15 -14 0 -21 4 -18 10
3 6 -2 10 -12 11 -10 1 -62 4 -115 8 -66 4 -103 2 -113 -5z"/>
<path d="M6050 5380 c-13 -8 -12 -10 3 -10 9 0 17 5 17 10 0 12 -1 12 -20 0z"/>
<path d="M6050 5351 c0 -5 -10 -13 -22 -17 -12 -3 -31 -17 -44 -29 -16 -16
-30 -21 -48 -18 -15 3 -26 1 -26 -6 0 -6 10 -11 22 -11 l21 0 -23 -20 c-13
-11 -29 -20 -37 -20 -7 0 -13 -4 -13 -9 0 -15 -33 -22 -42 -9 -5 9 -8 10 -8 1
0 -6 4 -15 10 -18 5 -3 -18 -34 -53 -69 -46 -47 -65 -61 -75 -53 -7 5 -15 7
-19 3 -3 -3 -1 -6 5 -6 17 0 15 -30 -3 -36 -8 -4 -15 -14 -15 -24 0 -10 -10
-22 -21 -25 -15 -5 -18 -10 -10 -15 9 -5 9 -11 -3 -23 -9 -8 -16 -25 -16 -35
0 -11 -5 -22 -12 -24 -6 -2 -13 -31 -16 -64 -5 -65 10 -89 58 -95 39 -5 50 8
50 62 0 27 5 49 10 49 6 0 10 11 10 25 0 14 4 25 10 25 5 0 12 11 16 25 3 14
10 25 15 25 5 0 9 7 9 15 0 16 135 155 150 155 5 0 37 27 69 60 33 33 64 60
69 60 16 0 62 59 62 81 0 11 -6 27 -14 35 -16 16 -66 19 -66 5z"/>
<path d="M4518 5223 c7 -3 16 -2 19 1 4 3 -2 6 -13 5 -11 0 -14 -3 -6 -6z"/>
<path d="M8635 5220 c-3 -6 1 -7 9 -4 18 7 21 14 7 14 -6 0 -13 -4 -16 -10z"/>
<path d="M8831 5204 c0 -11 3 -14 6 -6 3 7 2 16 -1 19 -3 4 -6 -2 -5 -13z"/>
<path d="M4730 5100 c-9 -6 -10 -10 -3 -10 6 0 15 5 18 10 8 12 4 12 -15 0z"/>
<path d="M4678 5093 c7 -3 16 -2 19 1 4 3 -2 6 -13 5 -11 0 -14 -3 -6 -6z"/>
<path d="M5928 5093 c7 -3 16 -2 19 1 4 3 -2 6 -13 5 -11 0 -14 -3 -6 -6z"/>
<path d="M6868 4823 c7 -3 16 -2 19 1 4 3 -2 6 -13 5 -11 0 -14 -3 -6 -6z"/>
<path d="M5653 4693 c9 -2 23 -2 30 0 6 3 -1 5 -18 5 -16 0 -22 -2 -12 -5z"/>
<path d="M5410 4631 c0 -5 9 -11 21 -14 16 -4 18 -3 8 9 -13 16 -29 19 -29 5z"/>
<path d="M7448 4573 c7 -3 16 -2 19 1 4 3 -2 6 -13 5 -11 0 -14 -3 -6 -6z"/>
<path d="M7040 4484 c0 -8 5 -12 10 -9 6 3 10 10 10 16 0 5 -4 9 -10 9 -5 0
-10 -7 -10 -16z"/>
<path d="M8011 4484 c0 -11 3 -14 6 -6 3 7 2 16 -1 19 -3 4 -6 -2 -5 -13z"/>
<path d="M8153 4473 c9 -2 23 -2 30 0 6 3 -1 5 -18 5 -16 0 -22 -2 -12 -5z"/>
<path d="M5552 4304 c-7 -8 -8 -14 -3 -14 10 0 25 19 20 25 -2 1 -10 -3 -17
-11z"/>
<path d="M9530 4211 c0 -10 19 -25 25 -20 1 2 -3 10 -11 17 -8 7 -14 8 -14 3z"/>
<path d="M9218 3943 c7 -3 16 -2 19 1 4 3 -2 6 -13 5 -11 0 -14 -3 -6 -6z"/>
<path d="M6618 3673 c7 -3 16 -2 19 1 4 3 -2 6 -13 5 -11 0 -14 -3 -6 -6z"/>
<path d="M6182 3654 c-7 -8 -8 -14 -3 -14 10 0 25 19 20 25 -2 1 -10 -3 -17
-11z"/>
<path d="M6218 3644 c10 -5 9 -10 -4 -25 -17 -19 -26 -79 -11 -79 4 0 7 -10 7
-22 0 -28 49 -88 72 -88 9 0 19 -7 22 -15 3 -9 19 -21 36 -26 16 -6 30 -15 30
-20 0 -5 5 -9 11 -9 7 0 22 -11 35 -25 13 -14 30 -25 37 -25 8 0 17 -7 21 -15
3 -8 15 -15 26 -15 11 0 20 -4 20 -10 0 -5 7 -10 15 -10 8 0 15 -4 15 -10 0
-5 7 -10 15 -10 8 0 24 -11 36 -24 12 -14 37 -26 60 -30 21 -3 39 -11 39 -16
0 -6 7 -10 15 -10 8 0 15 -4 15 -10 0 -5 9 -10 19 -10 11 0 22 -4 26 -9 3 -6
27 -13 53 -17 26 -4 50 -11 53 -15 3 -5 34 -12 70 -15 35 -4 67 -12 71 -17 4
-6 28 -10 55 -10 27 1 51 -4 55 -10 11 -18 730 -17 736 1 2 6 15 12 29 12 13
0 31 7 39 15 9 8 30 15 47 16 27 0 29 2 12 9 -19 8 -19 9 3 9 34 1 93 31 117
58 11 13 28 23 37 23 9 0 20 9 23 20 4 12 14 20 23 19 20 -3 102 32 102 43 0
5 6 8 14 8 8 0 35 21 61 46 37 36 48 54 53 87 3 23 13 49 24 58 46 41 -1 109
-77 109 -25 0 -45 -4 -45 -10 0 -6 -33 -10 -78 -10 -43 0 -82 -4 -88 -10 -5
-5 -71 -12 -147 -16 -75 -4 -137 -11 -137 -16 0 -4 -119 -8 -265 -8 -170 0
-265 4 -265 10 0 6 -43 10 -108 10 -60 0 -111 3 -115 6 -3 4 -51 6 -107 5 -65
-1 -100 2 -100 8 0 7 -29 11 -74 11 -41 0 -77 4 -80 9 -3 5 -50 12 -103 16
-54 4 -101 12 -104 17 -4 6 -30 10 -58 10 -28 -1 -51 2 -51 7 0 4 -39 11 -87
14 -49 4 -104 9 -123 12 -19 3 -29 2 -22 -1z m410 -187 c7 -5 12 -31 12 -60 0
-47 -1 -49 -17 -36 -10 8 -31 21 -48 29 -16 8 -32 17 -35 20 -6 7 -56 41 -84
58 -18 10 -6 11 69 6 50 -4 96 -11 103 -17z m329 -37 l33 0 0 -101 0 -102 -49
6 c-27 3 -58 10 -68 16 -34 18 -91 41 -102 41 -6 0 -11 4 -11 9 0 5 -9 11 -20
14 -17 4 -20 14 -20 54 0 71 9 76 114 69 49 -3 104 -6 123 -6z m1333 -5 c0 -9
-9 -15 -23 -15 -13 0 -28 -5 -34 -11 -14 -14 -27 5 -19 26 8 21 76 20 76 0z
m-1127 -15 c68 0 73 -2 85 -27 7 -15 12 -66 12 -116 l0 -88 -82 6 c-46 4 -89
8 -95 10 -9 3 -13 35 -13 113 0 96 8 144 18 113 2 -7 34 -11 75 -11z m955 -33
c4 -33 -38 -82 -77 -92 -14 -4 -35 -15 -46 -24 -11 -10 -32 -21 -47 -25 l-28
-6 0 78 c0 49 5 83 12 90 9 9 40 12 98 10 85 -3 85 -3 88 -31z m-578 -16 c0
-17 5 -33 10 -36 14 -9 12 -106 -2 -138 -13 -26 -14 -27 -110 -27 l-98 0 0
115 0 115 100 0 100 0 0 -29z m280 10 c0 -11 5 -23 10 -26 6 -3 10 -35 10 -71
0 -43 4 -64 12 -64 9 0 9 -3 1 -11 -7 -7 -46 -14 -87 -17 -42 -2 -76 -9 -76
-13 0 -5 -11 -9 -25 -9 l-25 0 0 109 c0 78 -4 111 -12 114 -7 3 33 6 90 6 95
1 102 0 102 -18z"/>
<path d="M6468 3643 c17 -2 47 -2 65 0 17 2 3 4 -33 4 -36 0 -50 -2 -32 -4z"/>
<path d="M7233 3643 c26 -2 67 -2 90 0 23 2 2 3 -48 3 -49 0 -68 -1 -42 -3z"/>
<path d="M7883 3643 c26 -2 67 -2 90 0 23 2 2 3 -48 3 -49 0 -68 -1 -42 -3z"/>
<path d="M7080 3611 c0 -10 19 -25 25 -20 1 2 -3 10 -11 17 -8 7 -14 8 -14 3z"/>
<path d="M7275 3610 l-70 -6 73 -2 c42 -1 72 2 72 8 0 6 -1 9 -2 8 -2 -1 -34
-4 -73 -8z"/>
<path d="M7908 3603 c17 -2 47 -2 65 0 17 2 3 4 -33 4 -36 0 -50 -2 -32 -4z"/>
<path d="M6200 3370 c-8 -5 -12 -12 -9 -15 4 -3 12 1 19 10 14 17 11 19 -10 5z"/>
<path d="M6150 3360 c-13 -8 -12 -10 3 -10 9 0 17 5 17 10 0 12 -1 12 -20 0z"/>
<path d="M6568 3193 c7 -3 16 -2 19 1 4 3 -2 6 -13 5 -11 0 -14 -3 -6 -6z"/>
<path d="M6576 3091 c-4 -7 -5 -15 -2 -18 9 -9 19 4 14 18 -4 11 -6 11 -12 0z"/>
<path d="M6848 3093 c7 -3 16 -2 19 1 4 3 -2 6 -13 5 -11 0 -14 -3 -6 -6z"/>
<path d="M8038 3093 c7 -3 16 -2 19 1 4 3 -2 6 -13 5 -11 0 -14 -3 -6 -6z"/>
<path d="M6915 3060 c-3 -5 1 -10 10 -10 9 0 13 5 10 10 -3 6 -8 10 -10 10 -2
0 -7 -4 -10 -10z"/>
<path d="M7040 3006 c0 -2 7 -7 16 -10 8 -3 12 -2 9 4 -6 10 -25 14 -25 6z"/>
<path d="M1805 7630 c-3 -5 -1 -10 4 -10 6 0 11 5 11 10 0 6 -2 10 -4 10 -3 0
-8 -4 -11 -10z"/>
<path d="M2240 7555 c0 -8 7 -15 16 -15 14 0 14 3 4 15 -7 8 -14 15 -16 15 -2
0 -4 -7 -4 -15z"/>
<path d="M1918 7543 c7 -3 16 -2 19 1 4 3 -2 6 -13 5 -11 0 -14 -3 -6 -6z"/>
<path d="M1968 7543 c7 -3 16 -2 19 1 4 3 -2 6 -13 5 -11 0 -14 -3 -6 -6z"/>
<path d="M2178 7543 c7 -3 16 -2 19 1 4 3 -2 6 -13 5 -11 0 -14 -3 -6 -6z"/>
<path d="M1893 7513 c9 -2 23 -2 30 0 6 3 -1 5 -18 5 -16 0 -22 -2 -12 -5z"/>
<path d="M2036 7508 c-60 -3 -113 -11 -119 -17 -6 -6 -21 -11 -34 -11 -13 0
-23 -4 -23 -9 0 -5 -12 -12 -27 -16 -15 -3 -34 -14 -42 -24 -9 -10 -26 -21
-38 -25 -13 -4 -23 -12 -23 -17 0 -5 -5 -9 -10 -9 -11 0 -31 -15 -53 -38 -12
-13 -27 -28 -52 -49 -7 -7 -18 -13 -23 -13 -6 0 -12 -5 -14 -11 -2 -6 -22 -15
-43 -19 -33 -6 -35 -8 -12 -9 l28 -1 -35 -34 c-20 -18 -36 -38 -36 -43 0 -6
-9 -18 -20 -28 -11 -10 -17 -22 -14 -26 3 -5 0 -9 -5 -9 -6 0 -11 -9 -11 -21
0 -11 -4 -18 -9 -14 -6 3 -13 -15 -16 -40 -4 -25 -11 -45 -16 -45 -5 0 -9 -11
-9 -25 0 -14 -4 -25 -9 -25 -4 0 -11 -60 -15 -132 -4 -73 -12 -134 -17 -136
-5 -2 -9 -26 -9 -53 0 -31 -4 -48 -10 -44 -7 4 -10 -75 -10 -229 0 -129 4
-237 9 -240 5 -3 11 -18 13 -33 3 -16 9 -36 13 -45 5 -13 2 -18 -11 -19 -11 0
-4 -5 14 -10 25 -7 32 -15 32 -34 0 -13 5 -27 11 -30 6 -4 8 -13 5 -21 -3 -8
-1 -14 4 -14 6 0 10 -7 10 -15 0 -8 5 -15 10 -15 6 0 10 -11 10 -25 0 -14 4
-25 10 -25 5 0 12 -16 16 -35 4 -21 13 -37 25 -40 10 -4 22 -17 25 -31 3 -13
10 -24 14 -24 4 0 10 -14 14 -31 4 -20 10 -28 17 -23 8 5 10 1 7 -14 -4 -15 0
-22 18 -26 14 -4 24 -14 24 -23 0 -10 12 -28 27 -40 23 -20 24 -23 7 -24 -14
0 -15 -2 -4 -6 8 -4 39 -30 68 -60 29 -29 59 -53 67 -53 8 0 15 -4 15 -10 0
-5 6 -10 13 -10 15 0 67 -47 67 -60 0 -6 9 -10 20 -10 11 0 23 -7 26 -15 4 -8
15 -15 25 -15 24 0 25 -16 2 -29 -17 -10 -17 -10 0 -11 9 0 17 5 17 10 0 6 16
10 36 10 37 0 53 10 73 48 9 17 9 27 0 45 -14 26 -48 57 -62 57 -5 0 -18 10
-29 22 -10 12 -26 23 -36 24 -9 2 -18 8 -20 13 -2 6 -10 11 -18 11 -8 0 -14 4
-14 9 0 5 -10 13 -21 16 -27 9 -109 92 -109 111 0 8 -4 14 -10 14 -5 0 -10 6
-10 13 0 8 -11 24 -25 37 -14 13 -25 29 -25 37 0 7 -4 13 -9 13 -5 0 -12 11
-15 25 -4 14 -11 25 -16 25 -6 0 -10 7 -10 15 0 8 -4 15 -10 15 -5 0 -12 11
-16 25 -3 14 -10 25 -15 25 -5 0 -9 9 -9 20 0 11 -4 20 -10 20 -5 0 -13 18
-16 40 -4 22 -11 40 -16 40 -6 0 -8 9 -5 21 4 14 2 19 -8 15 -9 -3 -15 7 -19
30 -4 19 -11 34 -16 34 -6 0 -10 6 -10 14 0 8 -6 16 -12 18 -10 4 -14 55 -16
202 -2 108 -1 204 3 214 4 9 7 31 6 48 -1 18 2 35 8 39 6 3 11 31 11 61 0 34
4 53 10 49 6 -4 10 12 10 39 0 30 4 46 13 46 8 0 8 3 -2 9 -16 11 -10 103 8
109 6 2 11 15 11 28 0 14 4 23 9 20 5 -3 11 12 15 34 3 22 10 40 14 40 4 0 13
14 20 30 9 19 22 30 35 31 17 1 18 2 5 6 -19 5 -25 23 -9 23 5 0 34 25 65 55
49 49 58 54 85 49 20 -4 31 -2 31 5 0 6 -10 11 -22 12 -18 1 -15 3 10 10 18 5
30 14 27 19 -4 6 3 10 13 10 11 0 22 7 26 15 3 8 15 15 26 15 11 0 20 5 20 10
0 6 7 10 15 10 8 0 15 4 15 9 0 5 23 12 50 16 28 4 50 11 50 16 0 5 23 9 50 9
28 0 50 -4 50 -9 0 -5 23 -12 50 -16 28 -4 50 -9 50 -11 0 -13 -90 -94 -103
-94 -9 0 -19 -10 -23 -22 -3 -12 -17 -32 -30 -45 -13 -13 -24 -29 -24 -36 0
-7 -9 -19 -20 -27 -24 -17 -27 -74 -6 -96 22 -21 73 -18 81 5 3 11 15 23 26
26 10 4 19 14 19 24 0 10 11 27 25 37 14 10 25 24 25 30 0 17 33 50 58 58 12
4 22 11 22 16 0 4 17 6 39 3 25 -3 41 -1 46 7 5 9 4 11 -4 6 -7 -5 -24 -5 -39
-1 -25 7 -25 8 -7 15 11 5 25 9 31 9 20 2 54 -36 60 -68 4 -17 10 -31 15 -31
5 0 9 -7 9 -15 0 -8 5 -15 11 -15 6 0 9 -9 6 -20 -3 -11 -1 -23 4 -26 5 -3 9
-21 9 -40 0 -19 5 -34 10 -34 6 0 10 -22 10 -50 0 -27 4 -50 8 -50 5 0 9 -13
9 -30 0 -16 -4 -30 -9 -30 -4 0 -8 -16 -8 -35 0 -19 -4 -35 -9 -35 -5 0 -12
-20 -15 -45 -4 -25 -11 -45 -17 -45 -5 0 -9 -8 -9 -19 0 -19 -23 -45 -32 -36
-3 3 -21 -13 -40 -35 -20 -22 -39 -40 -43 -40 -8 0 -49 -35 -72 -64 -16 -18
-17 -66 -2 -66 5 0 7 -5 4 -11 -4 -6 3 -20 16 -32 20 -19 22 -19 16 -3 -7 17
-3 18 45 14 29 -3 48 -3 41 -1 -16 6 -5 33 13 33 8 0 29 15 47 34 18 18 42 36
54 40 12 4 25 16 28 26 3 10 15 22 26 25 10 4 19 11 19 16 0 6 3 8 8 5 4 -2 6
13 4 34 -3 31 0 39 16 44 19 6 38 69 33 105 -2 8 3 17 10 21 13 9 14 171 0
180 -4 3 -11 43 -14 89 -4 47 -11 89 -17 95 -5 5 -10 20 -10 33 0 13 -4 23 -9
23 -5 0 -12 14 -16 30 -4 17 -11 30 -16 30 -5 0 -9 7 -9 15 0 21 -153 171
-188 183 -17 6 -33 8 -36 5 -3 -4 -6 -1 -6 5 0 7 -15 12 -33 12 -18 0 -38 5
-44 11 -19 19 -76 25 -187 17z"/>
<path d="M2040 7330 c0 -5 7 -10 16 -10 8 0 12 5 9 10 -3 6 -10 10 -16 10 -5
0 -9 -4 -9 -10z"/>
<path d="M1990 7314 c0 -9 5 -14 12 -12 18 6 21 28 4 28 -9 0 -16 -7 -16 -16z"/>
<path d="M1753 7193 c9 -2 23 -2 30 0 6 3 -1 5 -18 5 -16 0 -22 -2 -12 -5z"/>
<path d="M2278 7193 c7 -3 16 -2 19 1 4 3 -2 6 -13 5 -11 0 -14 -3 -6 -6z"/>
<path d="M1290 7031 c0 -10 19 -25 25 -20 1 2 -3 10 -11 17 -8 7 -14 8 -14 3z"/>
<path d="M1341 6984 c0 -11 3 -14 6 -6 3 7 2 16 -1 19 -3 4 -6 -2 -5 -13z"/>
<path d="M2010 6960 c0 -5 5 -10 10 -10 6 0 10 5 10 10 0 6 -4 10 -10 10 -5 0
-10 -4 -10 -10z"/>
<path d="M1540 6930 c0 -5 7 -10 16 -10 8 0 12 5 9 10 -3 6 -10 10 -16 10 -5
0 -9 -4 -9 -10z"/>
<path d="M3035 6830 c-30 -8 -30 -8 8 -9 20 0 37 4 37 9 0 11 -2 11 -45 0z"/>
<path d="M2250 6770 c0 -5 -8 -10 -17 -10 -10 0 -27 -12 -40 -26 -12 -14 -28
-24 -35 -22 -7 3 -28 -10 -46 -29 -19 -18 -42 -33 -52 -33 -18 0 -80 -56 -80
-73 0 -5 -16 -25 -35 -43 -19 -18 -38 -47 -41 -63 -4 -17 -14 -33 -25 -36 -11
-4 -19 -15 -19 -26 0 -11 -4 -18 -9 -15 -5 4 -7 -3 -4 -14 3 -11 0 -20 -6 -20
-6 0 -11 -6 -11 -14 0 -8 -6 -16 -12 -18 -18 -6 -19 -509 0 -515 6 -3 12 -16
12 -29 0 -13 4 -24 9 -24 5 0 13 -10 16 -21 4 -12 28 -42 54 -67 33 -33 40
-43 23 -38 -13 5 -22 3 -22 -3 0 -6 11 -11 25 -11 14 0 38 -13 55 -30 17 -16
36 -30 43 -30 7 0 17 -8 24 -18 10 -17 22 -18 107 -14 66 3 96 1 96 -7 0 -7
23 -11 60 -11 33 0 60 -4 60 -9 0 -5 23 -12 50 -16 28 -4 50 -11 50 -16 0 -5
6 -9 14 -9 8 0 16 -5 18 -12 3 -8 44 -13 134 -16 l129 -3 60 62 c33 35 52 60
43 56 -16 -6 -18 0 -18 48 0 47 2 54 17 48 13 -5 12 -1 -5 17 -12 13 -22 34
-22 47 0 13 -4 23 -8 23 -4 0 -8 10 -9 22 -1 11 -6 24 -11 27 -5 3 -12 16 -16
29 -4 12 -12 22 -17 22 -5 0 -9 5 -9 11 0 6 -18 28 -40 50 -38 38 -52 80 -31
93 4 3 7 21 4 41 -2 20 1 35 7 35 6 0 10 43 10 115 0 63 -4 115 -9 115 -13 0
-20 49 -7 55 6 2 1 2 -11 -1 -13 -3 -23 -1 -23 5 0 6 -7 11 -15 11 -8 0 -15 5
-15 10 0 6 -41 10 -102 10 -70 0 -98 3 -88 10 9 6 10 10 3 10 -6 0 -15 -4 -18
-10 -3 -5 -15 -10 -26 -10 -10 0 -19 -4 -19 -10 0 -5 -6 -10 -13 -10 -7 0 -30
-9 -52 -20 -22 -11 -48 -20 -60 -20 -16 0 -17 -2 -6 -9 11 -7 3 -20 -37 -57
-29 -27 -52 -54 -52 -61 0 -7 -4 -13 -10 -13 -13 0 -13 -77 0 -85 6 -4 8 -11
5 -16 -3 -5 1 -6 9 -3 9 3 16 1 16 -5 0 -24 53 -10 87 24 18 18 34 38 35 42 1
13 42 53 55 53 6 0 19 9 27 21 11 17 28 22 79 26 36 3 77 3 91 -1 24 -6 26
-10 26 -66 0 -33 -4 -60 -10 -60 -5 0 -10 -16 -10 -35 0 -19 -4 -35 -10 -35
-6 0 -10 -33 -10 -78 0 -66 3 -80 20 -92 11 -8 20 -20 20 -27 0 -7 14 -26 30
-41 17 -16 30 -34 30 -39 0 -5 9 -18 20 -28 10 -9 22 -37 26 -61 3 -24 10 -44
15 -44 13 0 11 -40 -3 -54 -16 -15 -108 -21 -108 -8 0 6 -14 14 -32 17 -17 4
-46 16 -64 26 -38 21 -124 38 -159 31 -15 -2 -25 0 -25 7 0 7 -33 11 -100 11
-55 0 -100 4 -100 9 0 5 -10 13 -21 16 -24 8 -109 93 -109 110 0 6 -9 17 -20
25 -14 10 -21 31 -26 72 -4 32 -11 58 -15 58 -12 0 -11 187 1 195 6 3 10 35
10 70 0 35 5 67 10 70 6 4 8 11 5 16 -4 5 -1 9 4 9 6 0 11 9 11 20 0 11 4 20
9 20 5 0 11 8 15 18 10 29 29 54 93 119 44 45 73 66 100 72 21 5 29 10 18 10
-18 1 -18 3 5 16 14 8 31 17 39 21 33 17 91 85 91 107 0 13 -11 33 -25 45 -26
22 -75 30 -75 12z"/>
<path d="M2162 6754 c-7 -8 -8 -14 -3 -14 10 0 25 19 20 25 -2 1 -10 -3 -17
-11z"/>
<path d="M1940 6580 c0 -5 5 -10 10 -10 6 0 10 5 10 10 0 6 -4 10 -10 10 -5 0
-10 -4 -10 -10z"/>
<path d="M2191 6454 c0 -11 3 -14 6 -6 3 7 2 16 -1 19 -3 4 -6 -2 -5 -13z"/>
<path d="M2182 6404 c-7 -8 -8 -14 -3 -14 10 0 25 19 20 25 -2 1 -10 -3 -17
-11z"/>
<path d="M2215 6371 c4 -8 2 -17 -6 -22 -9 -6 -10 -9 -2 -9 19 0 27 21 13 33
-10 9 -11 9 -5 -2z"/>
<path d="M2360 6159 c0 -5 5 -7 10 -4 6 3 10 8 10 11 0 2 -4 4 -10 4 -5 0 -10
-5 -10 -11z"/>
<path d="M2223 6023 c9 -2 25 -2 35 0 9 3 1 5 -18 5 -19 0 -27 -2 -17 -5z"/>
<path d="M2498 5643 c7 -3 16 -2 19 1 4 3 -2 6 -13 5 -11 0 -14 -3 -6 -6z"/>
<path d="M1995 5519 c-11 -16 -1 -19 13 -3 7 8 8 14 3 14 -5 0 -13 -5 -16 -11z"/>
<path d="M1840 5509 c0 -5 5 -7 10 -4 6 3 10 8 10 11 0 2 -4 4 -10 4 -5 0 -10
-5 -10 -11z"/>
<path d="M2103 5493 c31 -2 83 -2 115 0 31 2 5 3 -58 3 -63 0 -89 -1 -57 -3z"/>
<path d="M2340 5460 c0 -5 4 -10 9 -10 6 0 13 5 16 10 3 6 -1 10 -9 10 -9 0
-16 -4 -16 -10z"/>
<path d="M2390 5450 c0 -5 7 -10 15 -10 8 0 15 5 15 10 0 6 -7 10 -15 10 -8 0
-15 -4 -15 -10z"/>
<path d="M3118 5373 c6 -2 18 -2 25 0 6 3 1 5 -13 5 -14 0 -19 -2 -12 -5z"/>
<path d="M1910 5161 c0 -10 19 -25 25 -20 1 2 -3 10 -11 17 -8 7 -14 8 -14 3z"/>
<path d="M2218 4843 c7 -3 16 -2 19 1 4 3 -2 6 -13 5 -11 0 -14 -3 -6 -6z"/>
<path d="M2670 4766 c0 -2 8 -10 18 -17 15 -13 16 -12 3 4 -13 16 -21 21 -21
13z"/>
<path d="M2866 4753 c-6 -14 -5 -15 5 -6 7 7 10 15 7 18 -3 3 -9 -2 -12 -12z"/>
<path d="M2383 4743 c9 -2 23 -2 30 0 6 3 -1 5 -18 5 -16 0 -22 -2 -12 -5z"/>
</g>
</svg>
